<?xml version="1.0" standalone="no"?>
<!DOCTYPE svg PUBLIC "-//W3C//DTD SVG 20010904//EN"
 "http://www.w3.org/TR/2001/REC-SVG-20010904/DTD/svg10.dtd">
<svg version="1.0" xmlns="http://www.w3.org/2000/svg"
 width="70.000000pt" height="477.000000pt" viewBox="0 0 850.000000 477.000000"
 preserveAspectRatio="xMidYMid meet">

<g transform="translate(0.000000,477.000000) scale(0.100000,-0.100000)"
fill="#000000" stroke="none">
<path d="M6623 3538 c-85 -78 -233 -294 -217 -319 12 -20 97 -69 120 -69 14 0
41 24 84 75 57 68 154 154 222 197 31 21 29 43 -10 86 -31 33 -101 72 -132 72
-11 0 -41 -19 -67 -42z"/>
<path d="M6920 3390 c0 -9 -15 -24 -32 -35 -66 -37 -169 -132 -231 -210 -53
-67 -60 -70 -110 -46 l-42 20 27 -22 c15 -12 49 -31 74 -41 l47 -19 20 29 c32
46 187 197 239 234 26 18 45 37 42 41 -3 5 -12 21 -20 37 -7 15 -14 20 -14 12z
m13 -44 c6 -14 -60 -66 -83 -66 -5 0 -10 -7 -10 -15 0 -14 -12 -20 -33 -16 -5
1 -6 -2 -3 -7 3 -5 -9 -23 -27 -39 -43 -40 -103 -108 -115 -129 -7 -13 -16
-15 -38 -9 -21 6 -24 9 -11 12 9 3 17 8 17 13 0 5 22 32 49 60 27 28 51 55 52
58 6 15 47 41 54 34 5 -4 5 -2 2 4 -9 15 103 108 134 113 4 1 9 -5 12 -13z"/>
<path d="M6882 3319 c-18 -12 -31 -23 -29 -26 3 -2 22 7 42 22 45 30 34 34
-13 4z"/>
<path d="M6760 3220 c-8 -5 -12 -12 -9 -15 4 -3 12 1 19 10 14 17 11 19 -10 5z"/>
<path d="M6706 3159 c-11 -10 -15 -19 -9 -19 5 0 18 9 28 20 23 26 6 25 -19
-1z"/>
<path d="M6640 3085 c-7 -9 -8 -15 -2 -15 5 0 12 7 16 15 3 8 4 15 2 15 -2 0
-9 -7 -16 -15z"/>
<path d="M3283 3113 c-72 -82 -147 -166 -167 -188 l-36 -40 -26 30 c-13 17
-22 22 -18 13 12 -35 -47 -140 -125 -220 -41 -43 -77 -76 -79 -74 -2 2 28 74
67 160 39 86 71 169 71 185 0 30 -28 68 -72 95 -24 16 -29 16 -55 2 -16 -8
-79 -62 -139 -119 -80 -75 -117 -104 -134 -103 -34 2 -34 16 1 69 24 37 33 44
44 34 14 -13 1 -52 -14 -42 -5 2 -15 -3 -22 -13 -13 -15 -12 -16 4 -3 10 8 17
9 17 3 0 -6 -4 -14 -10 -17 -5 -3 -10 -11 -10 -18 0 -17 59 56 60 74 0 9 -8
23 -19 33 -17 16 -20 14 -65 -51 -26 -37 -69 -99 -97 -138 -27 -38 -70 -100
-95 -137 -39 -58 -164 -178 -186 -178 -9 0 17 62 50 120 38 65 133 208 229
342 92 129 93 131 32 182 -59 50 -62 49 -270 -83 -407 -260 -669 -388 -877
-431 -35 -7 -66 -19 -69 -27 -10 -25 6 -58 38 -77 76 -45 301 13 620 159 158
72 184 72 139 -2 -22 -37 -71 -64 -243 -133 -121 -48 -277 -93 -369 -106 -38
-5 -55 -2 -83 15 -47 28 -45 18 4 -15 23 -15 45 -23 52 -18 7 4 9 3 5 -4 -13
-21 60 -24 145 -7 90 19 245 70 335 111 31 14 58 23 61 21 2 -3 -22 -54 -55
-114 -117 -212 -320 -637 -338 -708 -4 -15 -1 -37 6 -50 12 -23 80 -75 98 -75
5 0 47 60 95 134 101 155 217 304 337 435 84 91 278 270 355 326 22 16 43 34
47 39 16 23 19 -6 7 -59 -7 -32 -20 -62 -31 -69 -11 -8 -16 -20 -12 -30 4 -9
-1 -23 -13 -34 -10 -9 -13 -13 -6 -9 22 15 3 -57 -74 -287 -40 -121 -73 -227
-73 -236 0 -30 98 -109 119 -95 5 3 40 56 77 118 140 233 292 454 394 572 61
71 149 165 154 165 2 0 -2 -21 -10 -47 -8 -27 -19 -64 -24 -84 -6 -20 -35 -68
-66 -105 -120 -147 -245 -329 -384 -561 -40 -68 -77 -123 -82 -123 -5 0 -19 5
-31 11 -19 10 -20 10 -7 -3 8 -8 31 -24 51 -36 l36 -21 118 191 c118 191 213
334 272 405 14 17 14 17 10 -2 -3 -11 -64 -194 -137 -407 -144 -427 -142 -411
-70 -443 19 -8 48 -17 64 -18 34 -2 14 -56 211 545 159 484 236 677 432 1077
62 129 112 240 109 247 -8 20 -106 94 -126 94 -10 0 -71 -60 -147 -147z m-229
-228 c3 -8 1 -15 -4 -15 -6 0 -10 7 -10 15 0 8 2 15 4 15 2 0 6 -7 10 -15z
m-558 -113 c-36 -36 -66 -68 -66 -72 0 -5 -7 -11 -16 -14 -10 -4 -5 8 13 31
16 21 41 57 57 81 17 27 33 42 41 38 10 -3 12 0 8 12 -6 15 -5 15 11 3 16 -14
12 -19 -48 -79z m-489 -203 c-9 -6 -15 -14 -12 -19 3 -4 -3 -6 -14 -3 -10 3
-22 0 -25 -6 -5 -7 0 -9 11 -5 17 5 17 5 0 -6 -9 -6 -22 -8 -27 -5 -6 3 -10 1
-10 -4 0 -6 -4 -11 -10 -11 -5 0 -33 -11 -62 -24 -29 -13 -87 -34 -128 -46
-41 -12 -86 -26 -100 -30 -53 -18 -141 -31 -162 -24 -20 6 -17 9 22 21 25 7
55 11 68 8 12 -3 22 -1 22 5 0 5 8 10 18 10 9 0 56 14 105 30 53 19 98 28 115
25 21 -4 23 -3 7 3 -19 9 -19 9 2 20 27 15 43 15 23 1 -12 -9 -12 -10 3 -5 10
3 24 6 30 6 7 0 6 4 -3 10 -13 9 -13 10 0 10 8 0 38 11 65 24 51 25 98 36 62
15z m963 -303 c0 -8 -4 -26 -10 -40 -13 -35 -130 -182 -142 -178 -5 1 -7 -2
-4 -7 10 -16 -34 -81 -50 -74 -24 9 -17 25 56 126 39 53 70 103 70 109 0 9 3
9 12 0 9 -9 9 -15 0 -24 -7 -7 -12 -19 -12 -27 1 -10 6 -7 15 9 8 14 11 34 8
45 -5 18 -4 19 13 5 17 -14 18 -14 6 2 -15 19 -8 38 13 38 9 0 12 6 9 15 -4 8
-1 15 5 15 6 0 11 -6 11 -14z m-201 -313 c8 -5 -22 -33 -30 -27 -5 3 -6 -1 -3
-9 3 -8 -15 -43 -39 -78 -24 -35 -47 -73 -51 -84 -6 -16 -9 -17 -17 -5 -9 12
-10 12 -5 -2 5 -17 -68 -158 -82 -158 -31 1 -28 21 15 90 25 41 57 94 70 118
14 23 28 40 33 37 4 -2 15 4 25 15 10 11 13 20 8 20 -6 0 -14 -7 -17 -16 -4
-9 -9 -14 -12 -12 -3 3 12 32 33 64 20 33 36 63 35 68 -2 5 5 3 15 -4 10 -8
20 -16 22 -17z"/>
<path d="M2845 2108 c-16 -25 -21 -37 -11 -29 16 14 51 71 43 71 -3 0 -17 -19
-32 -42z"/>
<path d="M2765 1999 c-11 -16 -1 -19 13 -3 7 8 8 14 3 14 -5 0 -13 -5 -16 -11z"/>
<path d="M2653 1808 c-15 -20 -25 -38 -20 -38 3 0 12 11 21 25 17 26 16 35 -1
13z"/>
<path d="M2580 1695 c-7 -9 -11 -17 -9 -20 3 -2 10 5 17 15 14 24 10 26 -8 5z"/>
<path d="M2540 1620 c-8 -5 -12 -12 -9 -15 4 -3 12 1 19 10 14 17 11 19 -10 5z"/>
<path d="M6268 3033 c-80 -96 -242 -307 -298 -390 -19 -28 -38 -49 -43 -46 -4
2 -3 12 2 21 5 10 17 53 26 96 16 79 16 79 -7 105 -12 14 -25 29 -28 33 -3 4
-6 -19 -7 -50 -3 -84 -85 -348 -120 -384 -28 -29 -47 -35 -58 -18 -3 5 19 94
49 197 76 259 82 287 62 319 -21 31 -96 86 -113 82 -7 -2 -50 -52 -96 -113
-48 -63 -90 -110 -99 -109 -10 1 -14 -5 -11 -16 5 -20 -61 -100 -72 -88 -4 4
-3 38 3 75 12 84 4 107 -47 133 -70 35 -106 25 -146 -44 -37 -64 -53 -75 -72
-51 -13 19 -14 18 -7 -9 5 -19 2 -31 -7 -37 -23 -14 -25 -12 -43 52 -27 97
-79 130 -160 99 -56 -21 -181 -167 -331 -385 -38 -55 -80 -111 -94 -125 -14
-14 -32 -37 -40 -53 -8 -15 -18 -27 -22 -27 -4 0 -10 -12 -14 -27 -4 -16 -10
-22 -12 -16 -6 17 56 125 68 118 5 -4 6 2 2 11 -4 12 -3 15 5 10 13 -8 17 6 5
17 -10 11 -50 -50 -99 -150 -58 -121 -114 -166 -114 -94 0 51 69 210 123 283
l22 30 -39 33 -38 34 58 3 59 3 -35 19 c-58 33 -136 26 -203 -18 -79 -50 -130
-98 -203 -192 -67 -86 -148 -226 -137 -237 3 -4 1 -7 -5 -7 -7 0 -12 -7 -12
-16 0 -22 -57 -77 -71 -68 -7 4 -10 27 -7 60 9 103 121 291 252 424 119 120
223 162 309 127 53 -22 49 -1 -9 52 -57 53 -99 71 -166 71 -121 0 -274 -119
-474 -367 -41 -50 -77 -93 -81 -95 -5 -1 -22 -20 -40 -40 -17 -20 -33 -34 -36
-32 -3 3 -13 -15 -22 -41 -10 -25 -20 -44 -22 -42 -7 8 40 116 48 111 5 -3 6
2 3 11 -4 11 -2 14 9 9 15 -5 45 32 34 43 -3 2 -8 -5 -12 -16 -5 -18 -25 -30
-25 -16 0 17 35 73 43 68 6 -3 8 -2 4 3 -3 5 0 20 7 33 9 15 16 20 20 12 4 -6
2 -11 -5 -11 -9 0 -9 -3 0 -14 10 -12 8 -21 -6 -42 -10 -16 -13 -25 -6 -21 6
4 25 29 41 56 l31 49 -23 21 c-18 17 -25 19 -34 9 -20 -25 -132 -250 -154
-311 -22 -60 -70 -127 -90 -127 -19 0 0 116 32 197 31 81 73 166 129 266 l33
58 -43 40 c-70 64 -74 64 -106 22 -15 -20 -38 -47 -50 -60 -13 -13 -33 -39
-46 -58 -13 -19 -27 -32 -30 -29 -9 10 -29 -47 -24 -68 3 -10 2 -16 -2 -14
-14 9 -109 -233 -117 -299 -3 -27 -9 -59 -14 -70 -23 -55 -98 -278 -110 -325
-16 -66 -47 -140 -55 -132 -4 4 -5 -2 -1 -14 4 -13 1 -26 -9 -34 -8 -7 -13
-20 -10 -29 3 -9 -4 -41 -16 -71 -11 -30 -22 -65 -25 -78 -2 -12 -12 -44 -22
-70 -15 -40 -22 -47 -45 -48 -15 -1 -30 3 -33 7 -3 5 2 9 10 9 18 0 38 35 56
97 7 23 17 40 23 36 5 -3 7 3 3 14 -4 12 6 55 25 104 17 46 33 93 35 104 4 21
110 344 142 432 10 29 23 49 27 45 5 -4 5 -1 0 6 -4 8 -3 24 3 35 5 12 15 36
20 52 12 35 56 151 68 180 4 11 9 25 9 30 1 6 14 36 28 68 15 32 27 60 27 63
0 6 29 68 112 244 90 189 135 273 140 258 3 -7 7 -5 11 6 4 10 3 15 -3 11 -6
-3 -10 -1 -10 4 0 6 5 11 11 11 5 0 8 4 5 9 -3 4 1 17 9 27 12 17 13 16 11
-16 -4 -42 -26 -91 -37 -84 -5 3 -6 -3 -2 -12 5 -13 3 -15 -7 -9 -9 5 -11 4
-6 -4 5 -7 -22 -73 -63 -156 -39 -80 -71 -150 -71 -157 0 -7 -7 -22 -15 -32
-8 -11 -15 -27 -15 -35 0 -9 9 2 20 24 11 22 67 136 124 254 l105 214 -21 27
-20 28 -107 -217 c-106 -216 -130 -267 -202 -436 -91 -216 -192 -503 -359
-1022 -69 -214 -67 -211 -146 -178 -19 8 -32 10 -29 5 11 -17 106 -60 134 -60
26 0 28 4 115 273 142 442 171 526 179 527 4 0 7 -9 7 -20 0 -24 25 -76 49
-100 29 -31 85 -53 138 -54 44 0 59 5 108 39 32 21 84 69 117 106 l60 67 43
-43 c51 -51 85 -70 142 -80 76 -12 142 23 243 129 l43 45 38 -34 c53 -48 76
-58 136 -58 108 0 219 99 404 359 118 165 183 243 194 232 14 -13 -17 -127
-46 -173 -59 -93 -228 -312 -285 -369 -69 -69 -159 -116 -221 -116 -32 0 -55
9 -103 42 l-63 43 -62 -62 c-84 -83 -132 -106 -206 -101 -41 3 -70 12 -101 32
-30 20 -37 22 -23 8 11 -12 46 -35 79 -51 45 -24 71 -31 116 -31 57 0 61 2
133 59 41 33 82 69 90 81 l16 22 30 -21 c132 -95 234 -77 370 62 80 82 141
160 141 179 0 7 -12 -5 -26 -26 -24 -34 -28 -37 -42 -23 -13 14 -12 19 13 49
15 18 31 33 36 33 4 0 11 4 16 9 5 5 3 6 -4 2 -22 -12 -14 13 7 26 11 7 20 17
20 23 0 5 12 24 25 40 l26 30 -27 -55 c-15 -30 -29 -77 -31 -105 -4 -53 11
-80 67 -118 56 -39 85 -16 193 158 31 50 67 101 81 114 23 22 26 22 32 7 15
-40 -6 -109 -61 -195 -56 -88 -65 -108 -43 -95 7 4 2 -9 -10 -30 -29 -50 -28
-58 3 -16 14 19 23 41 20 51 -7 22 6 31 22 14 18 -20 -49 -115 -82 -115 -13 0
-27 5 -30 10 -3 6 0 10 8 10 12 0 57 51 57 65 0 15 -18 2 -33 -25 -19 -32 -51
-39 -89 -19 -15 8 -19 8 -13 0 3 -6 28 -22 53 -35 59 -30 75 -23 127 53 37 54
37 59 0 75 -6 3 -4 8 3 14 8 5 14 13 14 18 0 13 17 41 18 29 0 -6 -5 -16 -10
-21 -28 -28 82 -123 141 -124 30 0 51 28 137 190 45 83 114 172 126 159 10
-11 -17 -135 -38 -172 -13 -23 -42 -77 -65 -121 -63 -117 -62 -116 -99 -116
-18 0 -43 5 -55 11 -19 9 -18 7 3 -10 14 -11 44 -28 68 -37 41 -16 43 -16 65
4 12 12 46 69 76 127 42 82 56 103 63 91 13 -22 62 -46 96 -46 39 0 105 45
187 129 71 73 88 83 99 55 18 -47 6 -70 -77 -151 -95 -93 -136 -112 -196 -88
l-36 15 25 -20 c86 -68 136 -61 235 32 52 48 63 63 54 74 -17 20 -28 17 -24
-6 4 -22 -58 -90 -105 -114 -31 -16 -87 -18 -96 -4 -4 7 -2 8 5 4 6 -4 18 -2
26 4 8 7 22 10 30 6 9 -3 14 -2 11 3 -3 5 5 16 19 25 26 17 33 9 13 -14 -11
-12 -10 -12 5 0 10 7 16 19 13 25 -2 7 9 25 25 41 34 33 39 22 7 -15 l-23 -26
23 20 c29 24 52 62 30 50 -7 -5 -2 4 11 18 14 15 27 27 29 27 3 0 2 -3 -1 -6
-4 -4 3 -20 14 -35 35 -50 58 -40 180 76 133 127 221 191 354 257 156 76 352
131 588 163 43 6 46 8 37 26 -6 11 -30 33 -53 50 -40 29 -46 31 -112 26 -118
-9 -375 -89 -515 -162 -17 -9 -34 -14 -37 -12 -2 3 33 74 80 159 47 84 88 163
91 175 8 26 -12 69 -45 98 l-22 20 17 -27 c20 -31 19 -35 -95 -240 -35 -61
-79 -143 -99 -182 -28 -54 -44 -73 -68 -83 -76 -31 -52 47 99 318 60 108 109
207 109 221 0 13 -10 34 -22 45 -25 22 -81 53 -97 53 -5 0 -43 -39 -83 -87z
m302 -121 c0 -8 -5 -10 -12 -6 -8 5 -9 2 -5 -9 9 -24 -33 -93 -45 -75 -7 9 -8
7 -4 -7 4 -14 -15 -57 -59 -134 -36 -62 -65 -119 -66 -125 0 -6 -5 1 -10 15
-8 22 -2 40 46 124 30 54 55 102 55 107 0 5 5 6 12 2 7 -4 8 -3 4 5 -5 7 3 29
18 52 15 22 31 52 37 67 8 21 12 23 19 12 6 -8 10 -21 10 -28z m-622 -135 c-1
-48 -31 -169 -39 -156 -9 15 -24 -33 -17 -53 3 -7 -4 -22 -15 -33 l-20 -20 6
20 c24 82 56 206 61 238 7 39 25 43 24 4z m-28 -187 c0 -5 -4 -10 -10 -10 -5
0 -10 5 -10 10 0 6 5 10 10 10 6 0 10 -4 10 -10z m-1455 -20 c13 -6 -1 -7 -39
-4 -33 2 -62 6 -64 9 -9 9 82 4 103 -5z m1885 -26 c-18 -21 -24 -10 -9 18 8
14 14 18 17 10 2 -7 -2 -19 -8 -28z m-2130 -49 c0 -3 -15 -22 -34 -42 -19 -21
-34 -42 -35 -48 -1 -5 -7 -10 -13 -10 -7 0 -13 -4 -13 -10 -1 -20 -73 -116
-78 -103 -2 7 -10 -7 -16 -31 -9 -33 -15 -41 -22 -30 -7 11 -9 11 -9 -4 0 -10
-11 -35 -25 -55 -14 -20 -25 -34 -25 -30 0 12 53 113 62 116 4 2 8 8 8 12 0
18 67 107 129 173 62 65 71 73 71 62z m-504 -60 c3 -8 -2 -24 -11 -37 -10 -13
-15 -16 -12 -7 3 9 1 21 -5 27 -11 11 -3 32 13 32 5 0 12 -7 15 -15z m1824
-264 c0 -30 -11 -52 -23 -44 -5 3 -7 1 -4 -5 11 -17 -4 -44 -20 -37 -11 4 -13
1 -9 -10 6 -17 -34 -106 -62 -137 -17 -20 -50 -23 -72 -7 -13 9 -12 10 2 5 12
-3 28 7 49 32 17 20 29 29 25 19 -3 -11 -2 -16 5 -12 6 4 8 14 5 22 -5 13 15
63 67 161 19 36 37 42 37 13z m-808 -66 c-38 -66 -187 -195 -225 -195 -9 0
-19 -4 -22 -10 -3 -5 -27 -8 -52 -5 -55 6 -70 15 -23 15 35 0 112 33 145 64
64 58 138 133 146 149 8 14 13 16 25 7 7 -7 10 -18 6 -25z m-495 -126 c16 -16
-75 -111 -98 -104 -9 3 -22 -3 -30 -12 -13 -16 -12 -17 4 -4 9 8 20 11 23 9 3
-3 -9 -16 -27 -29 -36 -25 -132 -39 -143 -20 -5 7 4 11 27 11 33 0 97 35 145
80 23 22 31 14 10 -10 -7 -8 -3 -6 9 4 12 10 21 22 20 26 -2 8 35 60 43 60 3
0 11 -5 17 -11z"/>
<path d="M6406 2655 c-9 -26 -7 -32 5 -12 6 10 9 21 6 23 -2 3 -7 -2 -11 -11z"/>
<path d="M5931 2754 c0 -11 3 -14 6 -6 3 7 2 16 -1 19 -3 4 -6 -2 -5 -13z"/>
<path d="M4060 2310 c-6 -11 -8 -20 -6 -20 3 0 10 9 16 20 6 11 8 20 6 20 -3
0 -10 -9 -16 -20z"/>
<path d="M3696 2427 c3 -10 9 -15 12 -12 3 3 0 11 -7 18 -10 9 -11 8 -5 -6z"/>
<path d="M5466 2053 c-6 -14 -5 -15 5 -6 7 7 10 15 7 18 -3 3 -9 -2 -12 -12z"/>
<path d="M4582 1980 c-20 -19 -27 -30 -19 -30 9 0 50 41 45 45 -2 3 -14 -4
-26 -15z"/>
<path d="M4510 1930 c-8 -5 -10 -10 -5 -10 6 0 17 5 25 10 8 5 11 10 5 10 -5
0 -17 -5 -25 -10z"/>
<path d="M4055 1835 c-16 -8 -23 -14 -14 -15 8 0 24 7 35 15 23 18 18 18 -21
0z"/>
<path d="M3776 3008 c-79 -89 -196 -239 -196 -253 0 -13 60 -61 96 -77 26 -12
29 -10 98 67 87 98 147 159 206 207 43 35 44 37 30 63 -19 35 -79 65 -129 65
-37 0 -45 -6 -105 -72z"/>
<path d="M4075 2948 c5 -12 -26 -48 -107 -130 -62 -62 -134 -137 -159 -167
-42 -47 -49 -52 -68 -42 -41 22 -21 2 25 -25 l46 -27 46 54 c66 75 222 233
250 251 l23 16 -26 38 c-32 47 -38 53 -30 32z m28 -50 c2 -7 -22 -38 -54 -69
-33 -30 -59 -53 -59 -51 0 2 -15 -13 -33 -35 -18 -21 -47 -54 -64 -73 -17 -19
-42 -48 -55 -64 -19 -22 -29 -27 -46 -22 -19 6 -20 9 -8 22 19 18 30 18 22 -2
-3 -8 -2 -12 3 -9 6 3 9 13 8 23 -1 20 31 72 45 72 5 0 0 -13 -12 -30 -32 -45
-16 -36 21 13 19 23 26 36 16 28 -9 -7 -17 -9 -17 -3 0 12 30 38 30 26 1 -5 7
6 15 25 10 22 20 31 30 27 8 -3 14 -2 12 3 -2 8 45 62 78 89 8 7 20 10 26 6 8
-4 7 -9 -2 -15 -10 -6 -10 -9 -2 -9 17 0 25 17 13 25 -8 5 -7 11 1 21 14 17
25 18 32 2z"/>
<path d="M4019 2833 c-13 -16 -12 -17 4 -4 9 7 17 15 17 17 0 8 -8 3 -21 -13z"/>
<path d="M3556 2893 c-6 -14 -5 -15 5 -6 7 7 10 15 7 18 -3 3 -9 -2 -12 -12z"/>
<path d="M3486 2755 c-9 -26 -7 -32 5 -12 6 10 9 21 6 23 -2 3 -7 -2 -11 -11z"/>
<path d="M3465 2709 c-4 -6 -5 -12 -2 -15 2 -3 7 2 10 11 7 17 1 20 -8 4z"/>
<path d="M4498 2593 c12 -17 22 -36 22 -42 0 -6 10 -15 21 -22 18 -9 17 -4
-10 35 -17 25 -37 48 -43 52 -7 4 -2 -6 10 -23z"/>
<path d="M7191 2584 c11 -20 19 -37 17 -39 -2 -1 -52 -10 -113 -19 -60 -9
-126 -20 -145 -23 -19 -4 -48 -7 -63 -6 -16 0 -23 -3 -17 -7 15 -9 -44 -21
-67 -14 -13 4 -14 3 -5 -4 9 -6 -3 -14 -45 -27 -68 -21 -273 -124 -273 -136 0
-5 -5 -9 -11 -9 -6 0 -41 -21 -78 -47 -36 -26 -70 -47 -74 -45 -5 1 -5 -3 -1
-9 4 -8 -1 -9 -17 -4 -18 5 -20 4 -10 -4 12 -8 5 -20 -39 -65 -30 -31 -60 -54
-67 -52 -7 3 -10 -1 -7 -9 8 -21 -41 -48 -73 -40 l-26 6 32 20 c37 22 45 24
35 7 -4 -8 -3 -9 2 -5 5 5 9 16 9 25 0 12 7 16 25 14 17 -1 21 1 12 7 -11 6
-8 14 14 34 21 20 30 23 37 14 5 -7 6 -4 2 9 -4 15 2 26 21 40 14 10 39 31 55
47 45 42 170 119 185 113 8 -3 11 0 8 8 -3 7 7 18 21 24 32 15 48 15 39 1 -4
-7 2 -7 17 1 35 18 38 23 9 15 -20 -5 -19 -3 9 15 18 12 40 19 48 16 8 -4 11
-1 7 5 -4 8 1 9 16 4 14 -4 20 -3 16 3 -8 13 39 25 67 17 15 -4 18 -3 9 3 -20
14 22 28 165 56 177 34 183 35 183 22 0 -7 3 -7 8 -1 4 6 16 12 27 13 33 6 31
12 -4 12 -95 0 -322 -51 -467 -106 -186 -69 -315 -154 -479 -313 -107 -104
-120 -112 -154 -100 -25 9 -25 9 4 -15 58 -48 80 -42 173 50 93 93 177 164
242 207 168 109 391 188 639 224 64 9 117 18 119 19 4 3 -47 84 -53 84 -3 0 4
-16 16 -36z"/>
<path d="M2432 2318 c-64 -52 -311 -305 -378 -388 -60 -73 -207 -276 -215
-295 -16 -39 -76 -125 -87 -125 -7 0 -23 5 -34 11 -15 8 -19 8 -14 0 11 -17
86 -53 101 -47 7 2 34 40 60 83 44 72 173 256 220 312 90 108 182 206 304 325
39 37 71 71 71 74 0 3 -8 -2 -18 -11 -27 -25 -38 -21 -16 5 l19 22 -27 -20
c-14 -10 -22 -20 -17 -22 5 -2 9 -8 9 -14 0 -6 -7 -7 -16 -4 -10 4 -25 -1 -36
-10 -10 -10 -20 -15 -23 -12 -5 5 66 74 121 117 15 12 25 24 22 26 -3 3 -24
-9 -46 -27z m-42 -102 c0 -4 -44 -47 -136 -134 -8 -7 -14 -18 -14 -24 0 -6 -6
-6 -15 2 -20 16 -19 34 1 26 8 -3 12 -2 9 4 -10 16 15 52 31 46 8 -3 12 -2 9
3 -6 11 44 65 53 56 4 -3 0 -10 -8 -15 -8 -5 -12 -11 -9 -14 3 -3 18 8 34 24
28 26 45 37 45 26z m-175 -157 c10 -15 -24 -49 -43 -42 -13 4 -14 3 -4 -5 11
-7 8 -15 -13 -38 -15 -16 -39 -45 -54 -64 -14 -19 -28 -37 -32 -40 -3 -3 -24
-31 -48 -63 -24 -33 -47 -55 -53 -51 -7 4 -8 3 -4 -4 4 -7 -19 -50 -52 -99
-33 -49 -67 -102 -75 -119 -20 -40 -41 -56 -61 -48 -14 5 -13 10 9 36 14 17
34 47 44 67 11 20 38 63 60 96 23 33 52 76 65 95 52 78 233 290 248 290 4 0
10 -5 13 -11z"/>
<path d="M2115 1967 c-33 -40 -35 -48 -7 -23 18 17 32 31 32 33 0 7 -16 1 -25
-10z"/>
<path d="M1986 1797 c3 -10 9 -15 12 -12 3 3 0 11 -7 18 -10 9 -11 8 -5 -6z"/>
<path d="M1940 1729 c0 -5 5 -7 10 -4 6 3 10 8 10 11 0 2 -4 4 -10 4 -5 0 -10
-5 -10 -11z"/>
<path d="M1896 1663 c-6 -14 -5 -15 5 -6 7 7 10 15 7 18 -3 3 -9 -2 -12 -12z"/>
<path d="M1836 1576 c-23 -49 -19 -59 5 -13 11 22 18 41 16 43 -2 3 -12 -11
-21 -30z"/>
<path d="M4749 2163 c-13 -16 -12 -17 4 -4 9 7 17 15 17 17 0 8 -8 3 -21 -13z"/>
<path d="M3675 1883 c-85 -92 -137 -126 -202 -131 -41 -3 -60 0 -89 18 -29 17
-35 18 -23 4 22 -27 110 -64 152 -64 61 0 103 25 195 114 l86 85 -24 21 c-13
11 -26 19 -29 19 -3 -1 -33 -31 -66 -66z m88 41 c11 -11 -16 -55 -31 -49 -8 3
-29 -8 -47 -24 -25 -22 -30 -31 -20 -35 8 -3 14 -2 13 2 -3 9 34 52 45 52 4 0
-3 -14 -15 -31 -27 -36 -69 -61 -86 -50 -8 4 11 30 55 74 67 67 74 72 86 61z
m-149 -140 c22 -8 20 -27 -1 -20 -10 3 -25 1 -33 -5 -12 -8 -10 -9 8 -4 35 10
26 -5 -14 -21 -27 -11 -51 -13 -88 -8 l-51 8 52 7 c29 4 65 16 80 28 33 24 28
22 47 15z"/>
<path d="M3740 1905 c-7 -9 -8 -15 -2 -15 5 0 12 7 16 15 3 8 4 15 2 15 -2 0
-9 -7 -16 -15z"/>
<path d="M3136 1895 c-9 -26 -7 -32 5 -12 6 10 9 21 6 23 -2 3 -7 -2 -11 -11z"/>
<path d="M2977 1401 c-4 -17 -3 -21 5 -13 5 5 8 16 6 23 -3 8 -7 3 -11 -10z"/>
<path d="M2926 1243 c-6 -14 -5 -15 5 -6 7 7 10 15 7 18 -3 3 -9 -2 -12 -12z"/>
</g>
</svg>
