<?xml version="1.0" standalone="no"?>
<!DOCTYPE svg PUBLIC "-//W3C//DTD SVG 20010904//EN"
 "http://www.w3.org/TR/2001/REC-SVG-20010904/DTD/svg10.dtd">
<svg version="1.0" xmlns="http://www.w3.org/2000/svg"
 width="70.000000pt" height="50.000000pt" viewBox="0 0 70.000000 50.000000"
 preserveAspectRatio="xMidYMid meet">

<g transform="translate(0.000000,50.000000) scale(0.100000,-0.100000)"
fill="#000000" stroke="none">
<path d="M0 2385 l0 -2385 4250 0 4250 0 0 2385 0 2385 -4250 0 -4250 0 0
-2385z m6752 1174 c45 -23 94 -71 101 -100 3 -12 -4 -24 -22 -35 -68 -45 -164
-131 -221 -199 -43 -51 -70 -75 -84 -75 -23 0 -108 49 -120 69 -16 25 132 241
217 319 53 48 71 51 129 21z m202 -218 c3 -4 -16 -23 -42 -41 -59 -42 -194
-173 -224 -217 -13 -18 -29 -35 -36 -38 -14 -5 -116 40 -132 60 -6 7 6 4 28
-6 21 -11 45 -17 53 -14 8 3 38 36 68 73 58 71 159 164 216 196 19 11 35 27
35 35 0 9 7 4 14 -11 8 -16 17 -32 20 -37z m-3454 -122 c28 -22 53 -46 56 -53
3 -7 -47 -118 -109 -247 -195 -398 -273 -593 -432 -1077 -63 -191 -129 -392
-147 -447 l-34 -100 -33 3 c-41 3 -107 36 -115 58 -4 10 48 178 125 403 72
212 133 395 136 406 l4 20 -15 -20 c-9 -11 -22 -27 -29 -36 -28 -32 -196 -290
-276 -421 l-84 -138 -36 22 c-20 11 -43 28 -51 36 -13 13 -12 13 7 3 12 -6 26
-11 31 -11 5 0 42 55 82 123 138 230 245 388 365 537 34 41 64 81 69 87 12 21
54 173 47 172 -3 0 -44 -43 -91 -95 -142 -158 -275 -346 -439 -617 -46 -75
-87 -139 -92 -142 -21 -13 -119 65 -119 94 0 9 33 117 74 241 70 215 100 319
94 326 -2 1 -39 -31 -83 -73 -44 -41 -72 -72 -62 -69 23 7 22 4 -10 -25 -15
-13 -21 -16 -14 -6 8 9 11 20 8 23 -7 8 -58 -46 -52 -56 2 -4 -3 -14 -13 -21
-15 -13 -16 -12 -3 4 8 10 9 17 3 17 -17 0 -34 -38 -25 -55 7 -11 25 2 81 57
55 53 70 73 60 80 -9 6 -6 7 10 3 21 -6 33 9 13 17 -5 2 3 12 17 22 l27 20
-19 -22 c-22 -26 -11 -30 16 -5 10 9 18 14 18 11 0 -3 -32 -37 -71 -74 -122
-118 -210 -212 -304 -325 -46 -55 -176 -240 -220 -312 -26 -43 -53 -81 -60
-83 -15 -6 -90 30 -101 47 -5 8 -1 8 14 0 36 -19 47 -12 87 57 48 83 167 252
249 352 66 82 318 338 407 413 49 42 57 55 68 103 7 31 10 58 7 61 -6 7 -57
-34 -215 -174 -209 -185 -378 -383 -538 -629 -47 -74 -90 -134 -95 -134 -18 0
-85 51 -98 75 -7 13 -10 35 -6 50 18 73 215 486 338 708 33 60 58 110 56 113
-2 2 -38 -10 -79 -27 -118 -49 -232 -86 -320 -104 -83 -17 -155 -14 -143 7 4
7 2 8 -5 4 -7 -5 -29 3 -52 18 -48 32 -52 43 -4 15 29 -17 44 -20 87 -14 131
18 386 103 537 179 72 37 121 116 72 116 -11 0 -74 -25 -140 -55 -227 -104
-400 -161 -517 -172 -59 -5 -77 -3 -103 13 -32 19 -48 52 -38 77 3 7 31 19 63
26 110 23 268 84 429 166 171 87 205 107 473 277 188 120 193 121 251 72 61
-51 61 -53 -32 -182 -94 -132 -190 -275 -229 -342 -33 -58 -59 -120 -50 -120
20 0 143 116 178 167 21 32 73 105 114 163 41 58 88 124 104 148 28 40 30 42
47 26 11 -10 19 -24 19 -33 -1 -18 -60 -91 -60 -74 0 7 4 14 9 18 6 3 16 18
24 33 10 22 11 31 2 39 -9 9 -18 4 -35 -19 -24 -33 -20 -49 7 -27 16 13 17 12
4 -4 -8 -10 -20 -16 -28 -13 -7 3 -13 4 -13 2 0 -3 -3 -12 -7 -22 -5 -14 -3
-16 11 -11 10 4 15 3 11 -3 -3 -5 4 -7 15 -5 12 2 69 49 127 105 129 123 151
137 192 115 40 -20 71 -62 71 -96 0 -16 -32 -99 -71 -185 -39 -86 -69 -158
-67 -160 2 -2 38 31 79 74 78 80 137 185 125 220 -4 9 5 4 18 -13 l25 -30 28
30 c16 17 91 101 167 188 81 92 146 157 156 157 10 0 41 -18 70 -41z m2893
-115 c49 -25 77 -55 77 -82 0 -14 -49 -113 -109 -221 -113 -203 -149 -285
-138 -314 6 -15 10 -16 39 -4 24 10 40 30 70 87 21 41 63 118 92 170 30 52 68
123 86 158 31 60 31 64 15 90 -10 18 -4 13 20 -13 30 -33 35 -45 31 -69 -4
-16 -45 -99 -92 -184 -47 -84 -84 -155 -82 -158 3 -2 49 16 104 40 177 77 337
125 449 133 66 5 72 3 112 -26 23 -17 47 -39 53 -50 9 -18 6 -20 -37 -26 -322
-44 -566 -128 -756 -262 -43 -31 -128 -103 -188 -160 -92 -87 -114 -104 -137
-101 -19 2 -32 13 -43 35 l-16 32 -24 -26 c-13 -14 -18 -23 -11 -18 11 6 12 4
3 -11 -19 -33 -41 -58 -46 -52 -3 2 4 13 15 23 11 10 20 23 20 28 0 6 -13 -2
-29 -17 -16 -16 -27 -34 -25 -41 3 -7 1 -16 -5 -20 -7 -4 -8 0 -4 11 6 15 4
15 -20 -1 -15 -9 -24 -21 -21 -26 3 -5 -2 -6 -11 -3 -8 4 -22 1 -31 -6 -10 -9
-18 -10 -25 -3 -7 7 0 12 22 17 47 9 199 160 199 197 0 36 -9 59 -24 59 -6 0
-43 -32 -81 -71 -82 -84 -148 -129 -187 -129 -34 0 -83 24 -96 46 -7 12 -21
-9 -63 -91 -30 -58 -64 -115 -76 -127 -22 -20 -24 -20 -65 -4 -24 9 -54 26
-68 37 -21 17 -22 19 -3 10 12 -6 37 -11 55 -11 37 0 36 -1 99 116 23 44 52
97 65 120 22 38 49 162 39 173 -13 12 -81 -73 -127 -159 -86 -162 -107 -190
-137 -190 -59 1 -169 96 -141 124 5 5 10 15 10 21 -1 11 -18 -14 -19 -28 0 -4
-9 -17 -20 -28 -10 -11 -18 -32 -18 -46 0 -14 -10 -35 -23 -46 l-22 -22 22 38
c29 49 20 47 -15 -3 -17 -25 -36 -40 -49 -40 -17 0 -18 -2 -6 -10 34 -22 59
-11 95 42 35 53 44 75 25 63 -16 -10 -11 1 7 16 9 8 14 9 10 2 -4 -6 -2 -13 4
-15 19 -6 -60 -117 -88 -124 -26 -7 -95 20 -116 44 -10 13 -9 14 10 4 53 -29
67 -19 148 104 42 64 81 130 86 147 12 41 12 94 0 101 -13 8 -58 -47 -115
-139 -99 -161 -131 -186 -186 -148 -56 38 -71 65 -67 119 2 28 16 74 30 102
14 29 25 52 23 52 -5 0 -86 -110 -86 -116 0 -3 6 -2 13 2 7 4 9 3 4 -2 -5 -5
-12 -9 -16 -9 -5 0 -21 -15 -36 -33 -25 -30 -26 -35 -13 -49 14 -14 18 -11 42
23 14 21 26 34 26 27 0 -17 -74 -111 -145 -185 -74 -76 -149 -118 -209 -118
-42 0 -136 38 -169 67 -16 15 -19 15 -33 -6 -9 -12 -50 -49 -91 -82 -70 -56
-77 -59 -129 -59 -31 0 -65 5 -77 12 -12 7 -27 13 -33 14 -16 3 -91 51 -99 64
-4 7 12 -1 35 -16 52 -35 137 -43 192 -20 21 9 68 46 106 83 l70 68 62 -43
c77 -52 118 -55 205 -13 79 37 154 113 282 286 58 77 109 139 115 137 5 -1 7
2 4 7 -4 5 2 24 13 43 23 39 48 145 37 156 -9 8 -81 -70 -124 -133 -293 -433
-452 -540 -603 -406 l-44 39 -45 -45 c-107 -109 -167 -140 -243 -128 -57 10
-91 29 -142 80 l-43 43 -60 -67 c-33 -37 -85 -85 -117 -106 -49 -34 -64 -39
-108 -39 -53 1 -109 23 -138 54 -24 24 -49 76 -49 100 0 51 -20 3 -90 -212
-181 -558 -182 -563 -211 -566 -14 -2 -49 9 -77 23 -59 30 -79 51 -28 30 79
-33 77 -36 146 178 167 519 268 806 359 1022 72 169 96 220 202 436 l107 217
20 -28 20 -27 -64 -129 c-35 -71 -90 -185 -124 -254 -33 -69 -60 -118 -59
-110 0 8 6 26 14 40 17 30 19 54 3 44 -7 -4 -8 -3 -4 5 4 6 11 9 16 6 5 -3 19
18 32 47 12 29 42 91 66 137 23 47 40 91 38 98 -4 9 -1 11 6 7 8 -5 9 -2 5 10
-4 9 -3 15 1 12 12 -7 45 53 38 70 -3 9 -1 12 4 9 12 -8 13 5 1 24 -7 11 -13
7 -25 -17 -18 -36 -20 -46 -6 -37 6 4 7 -1 3 -11 -4 -11 -8 -13 -11 -6 -2 7
-15 -9 -29 -36 -48 -88 -132 -260 -159 -324 -14 -34 -30 -67 -34 -73 -4 -5
-23 -48 -41 -95 -18 -47 -36 -87 -39 -90 -3 -3 -5 -9 -5 -15 -1 -5 -6 -21 -12
-35 -6 -14 -21 -52 -33 -85 -12 -33 -31 -82 -42 -108 -10 -27 -17 -56 -13 -65
3 -9 3 -13 -1 -9 -4 4 -20 -27 -36 -70 -30 -83 -33 -97 -18 -88 6 3 7 -1 3
-10 -4 -11 -8 -13 -13 -6 -6 11 -13 -9 -81 -224 -58 -184 -129 -397 -140 -416
-5 -11 -17 -19 -25 -19 -8 0 -13 -4 -10 -9 3 -4 18 -8 33 -7 27 1 30 7 70 126
23 69 54 166 68 215 15 50 30 95 35 100 4 6 10 24 13 40 3 17 15 59 28 95 50
147 71 206 79 225 5 11 11 43 14 70 8 66 103 308 117 299 4 -2 5 5 2 15 -3 11
0 28 7 38 10 16 11 16 7 -5 -7 -31 9 -18 18 15 7 28 33 70 69 107 11 13 34 39
49 59 32 43 36 42 106 -22 l44 -41 -45 -77 c-58 -101 -125 -250 -143 -321 -16
-61 -20 -122 -7 -122 21 0 71 74 102 150 31 80 121 260 143 288 8 10 15 8 33
-9 l23 -21 -31 -50 c-17 -27 -33 -47 -36 -44 -2 3 1 13 9 22 11 13 11 18 2 21
-7 3 -13 9 -13 15 0 6 6 6 15 -2 8 -7 15 -8 15 -2 0 5 -6 15 -14 21 -12 10
-16 8 -22 -11 -4 -13 -7 -27 -6 -31 1 -5 -2 -6 -6 -3 -10 6 -103 -185 -101
-207 0 -6 8 4 17 23 16 34 67 96 105 129 11 9 38 41 62 71 135 173 282 312
382 362 54 26 70 30 126 26 72 -4 139 -39 175 -93 25 -36 29 -53 8 -36 -8 7
-40 15 -70 18 -47 5 -64 2 -112 -22 -71 -35 -179 -136 -256 -238 -105 -142
-177 -321 -143 -356 12 -12 18 -9 44 17 17 17 31 38 31 46 0 9 5 16 12 16 6 0
8 3 5 7 -4 3 11 40 34 81 71 133 233 323 261 306 6 -4 8 -3 5 4 -4 6 15 24 45
42 66 41 145 45 202 12 42 -25 44 -21 14 21 -12 17 -17 27 -10 23 6 -4 26 -27
43 -52 l31 -46 -30 16 c-17 9 -54 16 -83 16 l-52 0 39 -34 39 -34 -22 -30
c-54 -73 -123 -232 -123 -283 0 -72 56 -27 114 94 57 116 93 167 102 144 3
-10 9 -17 13 -17 4 0 34 39 67 87 154 228 293 392 350 413 81 31 133 -2 160
-99 18 -64 20 -66 43 -52 9 6 12 18 7 37 -5 23 -4 26 4 12 17 -28 26 -22 69
41 54 79 80 87 152 51 51 -26 59 -49 47 -133 -6 -37 -7 -71 -3 -75 11 -12 77
68 72 88 -3 12 0 16 12 14 11 -3 42 32 100 111 46 63 89 115 96 115 18 0 92
-56 110 -84 21 -32 13 -72 -61 -321 -30 -99 -52 -185 -50 -192 8 -21 30 -15
58 15 41 43 136 361 125 417 -2 15 -2 23 2 18 3 -4 17 -20 29 -34 23 -26 23
-26 6 -105 -8 -43 -20 -86 -26 -94 -7 -11 -8 -9 -4 10 22 92 29 161 19 171 -8
8 -15 -11 -27 -68 -9 -43 -27 -108 -40 -145 -23 -67 -17 -96 8 -38 7 17 15 27
19 24 4 -4 9 1 13 10 3 9 9 14 13 12 3 -2 22 19 41 47 104 153 362 477 381
477 5 0 24 -7 42 -16z m-2438 -43 c22 -10 47 -30 55 -45 14 -27 13 -29 -30
-64 -59 -48 -119 -109 -206 -206 -69 -79 -71 -80 -100 -67 -16 6 -44 25 -63
41 -31 27 -33 32 -22 52 16 30 116 156 192 241 54 60 64 67 97 67 20 0 55 -9
77 -19z m149 -142 l28 -41 -24 -15 c-30 -21 -202 -194 -254 -258 l-40 -49 -47
27 c-46 27 -67 48 -26 26 19 -10 27 -5 72 48 29 32 100 107 160 166 69 69 107
114 103 123 -9 25 0 15 28 -27z m-613 -176 c-12 -20 -14 -14 -5 12 4 9 9 14
11 11 3 -2 0 -13 -6 -23z m-18 -38 c-3 -9 -8 -14 -10 -11 -3 3 -2 9 2 15 9 16
15 13 8 -4z m2434 -97 c-3 -8 -6 -5 -6 6 -1 11 2 17 5 13 3 -3 4 -12 1 -19z
m1299 -29 c14 -22 24 -42 22 -43 -2 -1 -55 -10 -119 -19 -298 -44 -552 -145
-734 -295 -16 -13 -74 -66 -128 -118 -110 -106 -136 -115 -192 -68 -29 24 -29
24 -4 15 35 -13 48 -4 159 105 52 51 111 105 130 119 19 14 46 33 58 42 52 39
200 115 286 147 157 59 415 115 477 103 20 -4 20 -4 -7 -6 -34 -1 -213 -33
-289 -51 -139 -34 -359 -125 -351 -147 3 -7 -1 -10 -8 -7 -15 6 -134 -67 -186
-113 -100 -88 -142 -136 -129 -145 10 -6 6 -7 -11 -3 -24 7 -24 6 -8 -11 17
-17 20 -16 82 46 36 35 62 68 59 74 -3 5 -1 6 4 3 6 -4 20 2 33 13 12 10 27
21 33 23 7 2 9 8 5 12 -4 4 -16 2 -25 -6 -15 -11 -15 -10 1 9 13 14 22 19 26
11 5 -7 32 5 76 34 75 49 207 113 291 143 37 12 49 21 40 27 -8 6 -7 7 6 3 23
-7 82 5 67 14 -6 4 1 7 17 6 24 0 313 44 321 50 2 1 -6 18 -17 38 -28 49 -17
46 15 -5z m-587 -173 c-2 -2 -15 -9 -29 -15 -24 -11 -24 -11 -6 3 16 13 49 24
35 12z m-1861 -246 c-7 -10 -14 -17 -17 -15 -4 4 18 35 25 35 2 0 -1 -9 -8
-20z m1190 -23 c9 -10 -2 -26 -46 -70 -64 -63 -118 -91 -160 -81 -24 7 -102
52 -102 60 0 6 54 -19 71 -33 26 -21 83 -16 125 13 66 45 94 76 89 101 -4 26
7 30 23 10z m-2178 -207 l24 -21 -86 -85 c-92 -89 -134 -114 -195 -114 -42 0
-130 37 -153 65 -12 14 -8 14 20 -4 43 -26 108 -27 158 -4 21 10 75 55 122
100 47 45 85 83 86 83 1 0 11 -9 24 -20z m-788 -542 c-8 -8 -9 -4 -5 13 4 13
8 18 11 10 2 -7 -1 -18 -6 -23z m-51 -151 c-10 -9 -11 -8 -5 6 3 10 9 15 12
12 3 -3 0 -11 -7 -18z"/>
<path d="M6910 3355 c-7 -8 -17 -15 -22 -15 -18 0 -108 -83 -101 -93 3 -6 1
-7 -5 -3 -9 6 -52 -25 -52 -38 0 -2 -22 -27 -50 -56 -27 -29 -50 -56 -50 -60
0 -5 -7 -10 -15 -12 -13 -2 -12 -6 5 -16 17 -11 23 -9 42 15 65 76 189 197
229 224 36 23 46 34 42 49 -6 24 -7 24 -23 5z m-40 -55 c0 -5 -5 -10 -11 -10
-5 0 -7 5 -4 10 3 6 8 10 11 10 2 0 4 -4 4 -10z m-59 -53 c-10 -9 -11 -8 -5 6
3 10 9 15 12 12 3 -3 0 -11 -7 -18z m-31 -20 c0 -2 -9 -12 -20 -22 -24 -21
-27 -14 -4 9 15 15 24 20 24 13z m-50 -62 c-7 -8 -17 -15 -23 -15 -6 0 -2 7 9
15 25 19 30 19 14 0z m-76 -80 c-4 -8 -11 -15 -16 -15 -6 0 -5 6 2 15 7 8 14
15 16 15 2 0 1 -7 -2 -15z"/>
<path d="M3038 2876 c-3 -14 -2 -26 2 -26 13 0 21 33 12 42 -6 6 -11 -1 -14
-16z"/>
<path d="M2513 2837 c-11 -12 -37 -47 -57 -79 -20 -31 -43 -62 -51 -68 -8 -7
-15 -17 -15 -22 0 -6 15 7 33 28 17 20 44 48 59 62 15 14 25 29 21 35 -3 6 -2
7 4 4 6 -4 20 4 32 17 18 19 19 25 8 34 -11 9 -18 7 -34 -11z"/>
<path d="M1955 2560 c-63 -30 -234 -95 -300 -115 -33 -9 -67 -20 -75 -23 -8
-3 -22 -4 -30 -4 -8 1 -35 -4 -60 -12 -39 -11 -42 -14 -22 -20 40 -13 271 47
390 100 29 13 57 24 62 24 6 0 10 5 10 11 0 5 4 7 10 4 5 -3 18 -1 27 5 17 11
17 11 0 6 -11 -4 -16 -2 -11 5 3 6 15 9 25 6 11 -3 17 -1 14 3 -3 5 3 13 12
19 32 19 -9 11 -52 -9z m-109 -65 c-8 -8 -20 -15 -27 -15 -7 0 -4 6 7 15 25
19 40 19 20 0z"/>
<path d="M2955 2281 c-3 -6 -3 -16 1 -23 4 -6 3 -8 -3 -5 -6 4 -16 0 -23 -8
-10 -12 -10 -19 1 -32 13 -16 12 -17 -3 -5 -19 15 -15 19 -91 -89 -73 -103
-71 -100 -56 -111 11 -8 11 -9 -2 -5 -14 5 -54 -29 -52 -43 0 -3 -20 -38 -46
-79 -25 -40 -66 -105 -90 -145 -24 -39 -53 -84 -63 -100 -17 -23 -18 -30 -7
-37 23 -15 27 -11 69 64 23 39 50 86 60 102 11 17 23 37 27 45 3 8 19 32 35
52 20 25 27 44 23 57 -3 11 -1 22 4 26 7 3 8 0 5 -9 -12 -30 4 -16 41 38 20
30 34 59 30 65 -3 7 -2 10 3 9 17 -5 141 162 148 199 7 35 1 53 -11 34z m-54
-128 c-8 -15 -10 -15 -11 -2 0 17 10 32 18 25 2 -3 -1 -13 -7 -23z m-28 -18
c-3 -9 -8 -14 -10 -11 -3 3 -2 9 2 15 9 16 15 13 8 -4z m-13 -28 c0 -2 -10
-12 -21 -23 -22 -19 -22 -19 -8 4 12 19 29 30 29 19z m-160 -241 c0 -2 -7 -9
-15 -16 -13 -11 -14 -10 -9 4 5 14 24 23 24 12z m-46 -71 c-9 -14 -18 -25 -21
-25 -5 0 5 18 20 38 17 22 18 13 1 -13z m-66 -105 c-7 -10 -14 -17 -17 -15 -4
4 18 35 25 35 2 0 -1 -9 -8 -20z m-33 -70 c-3 -5 -12 -10 -18 -10 -7 0 -6 4 3
10 19 12 23 12 15 0z"/>
<path d="M2213 2076 c4 -9 1 -13 -7 -10 -12 4 -83 -67 -137 -137 -15 -19 -39
-47 -53 -64 -14 -16 -24 -35 -21 -42 2 -7 -1 -15 -7 -19 -7 -4 -8 -3 -4 4 4 7
5 12 2 12 -3 0 -17 -17 -30 -37 -14 -21 -44 -65 -67 -98 -22 -33 -49 -76 -60
-96 -10 -20 -30 -50 -44 -67 -23 -27 -23 -31 -7 -37 20 -8 29 3 112 132 40 60
58 98 54 110 -4 12 -3 14 3 6 7 -9 25 8 64 60 29 39 56 74 59 77 3 3 18 22 33
43 16 21 53 62 83 92 34 35 51 60 48 70 -4 8 -11 15 -16 15 -6 0 -8 -7 -5 -14z
m-90 -116 c-9 -11 -19 -17 -21 -15 -6 6 18 35 29 35 5 0 1 -9 -8 -20z m-49
-65 c-4 -8 -11 -15 -16 -15 -6 0 -5 6 2 15 7 8 14 15 16 15 2 0 1 -7 -2 -15z
m-173 -238 c-10 -9 -11 -8 -5 6 3 10 9 15 12 12 3 -3 0 -11 -7 -18z m-51 -77
c-6 -12 -14 -20 -17 -17 -2 3 1 14 8 26 7 11 15 18 17 16 2 -2 -2 -13 -8 -25z"/>
<path d="M6533 2913 c-35 -66 -84 -156 -120 -220 -19 -35 -31 -68 -27 -74 4
-8 3 -9 -5 -5 -16 10 -23 -16 -13 -44 9 -23 10 -22 29 21 12 26 36 71 55 100
45 72 59 105 52 126 -4 13 -3 15 4 5 7 -10 14 -5 31 24 12 20 20 43 17 51 -3
8 -1 11 4 8 12 -8 13 15 1 33 -6 10 -14 3 -28 -25z m-122 -266 c-10 -9 -11 -8
-5 6 3 10 9 15 12 12 3 -3 0 -11 -7 -18z"/>
<path d="M4362 2575 c2 -3 31 -7 64 -9 38 -3 52 -2 39 4 -21 9 -112 14 -103 5z"/>
<path d="M6336 2551 c-14 -26 -14 -30 -1 -25 8 3 17 15 21 26 10 32 -3 32 -20
-1z"/>
<path d="M4149 2432 c-66 -68 -129 -152 -129 -170 0 -6 -4 -12 -9 -14 -9 -3
-61 -101 -61 -115 0 -4 11 9 25 29 14 20 25 44 25 53 0 9 5 13 10 10 6 -4 16
7 23 24 7 17 16 29 19 25 10 -9 30 35 22 48 -4 6 -3 8 3 5 10 -6 44 34 42 50
0 4 9 11 21 15 12 4 19 12 16 16 -3 5 6 20 20 33 24 23 49 59 41 59 -2 0 -33
-30 -68 -68z"/>
<path d="M3685 2440 c-10 -16 16 -43 28 -31 11 11 2 41 -12 41 -5 0 -13 -5
-16 -10z"/>
<path d="M4515 2367 c-10 -17 -21 -34 -25 -37 -3 -3 -14 -25 -23 -50 -14 -37
-15 -41 -2 -26 8 11 15 26 15 33 0 7 4 13 8 13 5 0 15 12 23 28 8 15 20 32 26
37 7 6 9 15 5 22 -6 9 -14 3 -27 -20z"/>
<path d="M5503 2158 c-54 -102 -72 -148 -67 -165 4 -14 4 -15 -4 -4 -8 11 -12
9 -23 -10 -16 -31 -39 -48 -59 -42 -13 4 -13 4 0 -6 18 -13 63 -15 56 -2 -3 5
4 11 15 14 12 3 18 10 14 16 -3 6 -2 11 2 11 12 0 55 89 48 100 -3 4 0 19 5
32 10 23 10 23 6 1 -2 -13 -1 -23 4 -23 12 0 21 30 13 42 -3 6 -1 8 4 5 12 -8
23 14 23 44 0 29 -18 23 -37 -13z m18 -11 c-10 -9 -11 -8 -5 6 3 10 9 15 12
12 3 -3 0 -11 -7 -18z m-50 -100 c-10 -9 -11 -8 -5 6 3 10 9 15 12 12 3 -3 0
-11 -7 -18z"/>
<path d="M4691 2110 c-12 -17 -20 -34 -17 -39 3 -4 -1 -17 -10 -27 -14 -18
-15 -18 -4 4 16 33 0 27 -43 -18 -62 -63 -142 -111 -201 -120 -30 -4 -41 -9
-26 -10 57 -7 86 -7 100 0 8 4 33 16 55 26 41 19 164 134 184 171 8 16 7 24
-2 32 -10 8 -19 3 -36 -19z m-101 -140 c-23 -20 -30 -24 -30 -15 0 8 44 45 48
40 3 -3 -5 -14 -18 -25z m-60 -40 c-8 -5 -19 -10 -25 -10 -5 0 -3 5 5 10 8 5
20 10 25 10 6 0 3 -5 -5 -10z"/>
<path d="M4210 1979 c0 -5 4 -7 10 -4 6 3 7 -1 3 -10 -4 -13 -8 -14 -13 -4 -6
9 -12 9 -24 -4 -9 -8 -16 -22 -16 -29 0 -8 -17 -30 -37 -49 l-38 -34 33 35
c36 41 44 62 10 30 -48 -45 -112 -80 -145 -80 -20 0 -32 -4 -28 -10 10 -15 83
-12 120 6 19 8 63 43 100 78 52 48 63 64 53 74 -15 15 -28 16 -28 1z"/>
<path d="M4060 2889 c-63 -50 -130 -121 -124 -132 4 -7 4 -9 -1 -5 -11 11 -36
-12 -28 -25 3 -5 1 -7 -5 -3 -15 9 -93 -85 -86 -106 2 -9 0 -19 -5 -23 -7 -3
-8 0 -5 9 8 20 -3 20 -22 2 -12 -13 -11 -16 8 -22 18 -5 29 1 57 37 20 24 86
94 148 156 82 82 109 114 100 121 -8 7 -20 4 -37 -9z m-20 -42 c0 -2 -10 -12
-22 -23 l-23 -19 19 23 c18 21 26 27 26 19z m-140 -141 c0 -2 -8 -10 -17 -17
-16 -13 -17 -12 -4 4 13 16 21 21 21 13z"/>
<path d="M6153 2078 c3 -10 1 -20 -5 -24 -7 -4 -8 -3 -4 4 10 17 1 15 -35 -7
l-32 -20 26 -6 c18 -5 36 -2 52 9 29 19 31 29 8 47 -15 12 -16 12 -10 -3z"/>
<path d="M3679 1865 c-35 -36 -63 -71 -61 -76 1 -6 -2 -8 -8 -4 -5 3 -24 -4
-41 -16 -17 -12 -54 -25 -82 -28 l-52 -7 48 -9 c33 -5 62 -3 88 5 41 14 56 36
17 25 -20 -5 -21 -4 -5 5 9 6 21 8 27 5 10 -6 30 9 85 64 19 19 32 37 30 40
-6 5 -51 -41 -48 -49 1 -3 -7 -6 -17 -6 -14 0 -10 8 18 33 20 17 44 30 53 27
16 -4 43 38 32 50 -12 11 -20 6 -84 -59z"/>
</g>
</svg>
