<?xml version="1.0" encoding="UTF-8"?>
<!DOCTYPE svg PUBLIC "-//W3C//DTD SVG 1.1//EN" "http://www.w3.org/Graphics/SVG/1.1/DTD/svg11.dtd">
<svg xmlns="http://www.w3.org/2000/svg" version="1.1" width="583px" height="500px" style="shape-rendering:geometricPrecision; text-rendering:geometricPrecision; image-rendering:optimizeQuality; fill-rule:evenodd; clip-rule:evenodd" xmlns:xlink="http://www.w3.org/1999/xlink">
<g><path style="opacity:0.939" fill="#030304" d="M 582.5,339.5 C 582.5,341.833 582.5,344.167 582.5,346.5C 580.685,350.479 577.685,353.312 573.5,355C 542.674,356.388 514.34,365.388 488.5,382C 480.5,390 472.5,398 464.5,406C 453.365,414.542 443.865,413.042 436,401.5C 426.805,412.055 415.971,414.221 403.5,408C 401.333,405.833 399.167,403.667 397,401.5C 385.297,424.477 371.797,425.477 356.5,404.5C 353.978,406.856 351.312,409.023 348.5,411C 339.112,412.391 331.612,409.224 326,401.5C 323.971,398.971 322.138,396.304 320.5,393.5C 316.043,398.459 311.376,403.292 306.5,408C 298.632,414.512 289.632,417.178 279.5,416C 276.166,414.669 273.166,412.835 270.5,410.5C 263.693,417.737 255.36,422.07 245.5,423.5C 237.393,422.696 230.56,419.363 225,413.5C 219.372,420.457 212.539,425.957 204.5,430C 197.785,431.248 191.452,430.248 185.5,427C 180.917,423.088 177.083,418.588 174,413.5C 167.131,435.774 160.464,458.107 154,480.5C 149.8,487.343 143.967,489.176 136.5,486C 123.591,480.623 116.758,471.123 116,457.5C 119.108,447.526 121.775,437.526 124,427.5C 121.525,434.312 116.859,438.645 110,440.5C 96.7977,436.128 88.631,427.128 85.5,413.5C 88.0022,403.5 90.1688,393.5 92,383.5C 78.1689,401.817 65.8356,421.15 55,441.5C 47.4073,449.44 39.7406,449.44 32,441.5C 27.8752,436.699 24.5419,431.365 22,425.5C 20.7496,422.923 20.4163,420.257 21,417.5C 30.1152,389.991 41.2819,363.325 54.5,337.5C 54.1667,337.167 53.8333,336.833 53.5,336.5C 42.0856,342.488 30.0856,344.988 17.5,344C 8.47171,338.424 2.47171,330.591 -0.5,320.5C -0.5,318.833 -0.5,317.167 -0.5,315.5C 1.19869,310.968 4.19869,307.468 8.5,305C 25.2707,300.448 40.9373,293.448 55.5,284C 73.5,270.667 91.5,257.333 109.5,244C 114.652,241.878 119.652,242.211 124.5,245C 130.248,250.012 134.915,255.846 138.5,262.5C 143.223,254.974 149.89,251.474 158.5,252C 165.072,255.292 170.239,260.125 174,266.5C 181.426,256.651 189.093,246.985 197,237.5C 205.144,231.774 212.81,232.44 220,239.5C 225.638,245.942 230.138,253.108 233.5,261C 232.549,261.718 232.383,262.551 233,263.5C 241.431,253.552 250.597,252.886 260.5,261.5C 265.641,266.81 269.808,272.81 273,279.5C 274.426,285.816 272.593,290.983 267.5,295C 284.131,292.599 296.631,298.765 305,313.5C 307.455,317.531 309.121,321.864 310,326.5C 318.413,313.518 327.913,301.351 338.5,290C 347.334,282.227 356.667,281.56 366.5,288C 368.359,289.558 369.859,291.391 371,293.5C 382.244,281.453 392.911,282.12 403,295.5C 407.122,289.709 411.622,284.209 416.5,279C 422.43,274.411 428.43,274.411 434.5,279C 442.469,286.443 448.303,295.276 452,305.5C 461.426,290.176 471.926,276.343 483.5,264C 490.813,243.053 503.48,226.053 521.5,213C 527.145,210.828 532.478,211.495 537.5,215C 546.429,222.03 553.595,230.53 559,240.5C 559.93,247.478 557.43,252.978 551.5,257C 540.375,264.458 530.875,273.624 523,284.5C 521.261,286.741 519.094,288.408 516.5,289.5C 515.679,292.447 515.179,295.447 515,298.5C 509.88,308.576 504.38,318.409 498.5,328C 513.607,322.082 529.274,317.748 545.5,315C 553.43,313.136 560.43,314.803 566.5,320C 572.928,325.743 578.262,332.243 582.5,339.5 Z"/></g>
<g><path style="opacity:1" fill="#f667d0" d="M 524.5,219.5 C 528.131,219.16 531.464,219.994 534.5,222C 540.738,227.334 545.904,233.501 550,240.5C 551.301,242.365 551.635,244.365 551,246.5C 537.539,256.294 525.705,267.794 515.5,281C 512.634,282.457 509.634,282.79 506.5,282C 500.428,278.049 495.595,272.882 492,266.5C 491.88,260.708 493.547,255.374 497,250.5C 504.575,238.758 513.742,228.425 524.5,219.5 Z"/></g>
<g><path style="opacity:1" fill="#040103" d="M 525.5,222.5 C 528.928,222.547 531.928,223.713 534.5,226C 537.667,229.833 540.833,233.667 544,237.5C 544.667,238.5 544.667,239.5 544,240.5C 530.873,249.96 519.373,261.127 509.5,274C 505.671,274.758 502.338,273.758 499.5,271C 498.378,268.876 496.878,267.043 495,265.5C 494.986,263.529 495.319,261.529 496,259.5C 503.447,245.225 513.28,232.891 525.5,222.5 Z"/></g>
<g><path style="opacity:1" fill="#010203" d="M 213.5,248.5 C 214.989,250.805 216.489,253.138 218,255.5C 218.667,256.833 218.667,258.167 218,259.5C 208.482,278.898 199.649,298.565 191.5,318.5C 171.139,368.249 154.139,419.249 140.5,471.5C 139.5,471.5 138.5,471.5 137.5,471.5C 133.799,469.218 130.299,466.551 127,463.5C 126.333,461.5 126.333,459.5 127,457.5C 138.274,422.512 149.441,387.512 160.5,352.5C 162.457,347.36 164.124,342.027 165.5,336.5C 166.39,334.218 166.556,331.885 166,329.5C 143.872,358.9 124.372,390.067 107.5,423C 106.167,423.667 104.833,423.667 103.5,423C 100.168,420.511 97.8343,417.344 96.5,413.5C 101.494,391.857 107.494,370.523 114.5,349.5C 116.538,345.06 118.204,340.393 119.5,335.5C 120.946,333.218 121.279,330.885 120.5,328.5C 88.3379,358.307 62.3379,392.641 42.5,431.5C 41.5,431.5 40.5,431.5 39.5,431.5C 33.0847,427.008 30.918,421.008 33,413.5C 47.3891,376.653 63.8891,340.819 82.5,306C 82.1667,305.167 81.8333,304.333 81.5,303.5C 64.0263,314.274 45.3596,322.44 25.5,328C 15.5902,330.415 10.7568,326.582 11,316.5C 34.2047,309.482 55.3714,298.648 74.5,284C 86.1667,275 97.8333,266 109.5,257C 111.56,255.304 113.893,254.137 116.5,253.5C 121.594,255.936 124.927,259.936 126.5,265.5C 112.572,286.346 99.9052,308.012 88.5,330.5C 89.0016,331.521 89.6683,331.688 90.5,331C 93.3355,327.333 96.3355,323.833 99.5,320.5C 104.533,315.468 109.199,310.135 113.5,304.5C 127.111,290.278 140.944,276.278 155,262.5C 163.778,267.88 165.778,275.214 161,284.5C 156.695,294.276 152.529,304.109 148.5,314C 148.667,314.5 148.833,315 149,315.5C 151.102,313.905 152.602,311.905 153.5,309.5C 159.516,302.814 165.182,295.814 170.5,288.5C 176.577,281.096 182.244,273.43 187.5,265.5C 193.262,258.564 199.262,251.73 205.5,245C 206.833,244.333 208.167,244.333 209.5,245C 210.705,246.376 212.038,247.542 213.5,248.5 Z"/></g>
<g><path style="opacity:1" fill="#77a8ea" d="M 215.5,246.5 C 214.5,246.833 213.833,247.5 213.5,248.5C 212.038,247.542 210.705,246.376 209.5,245C 208.167,244.333 206.833,244.333 205.5,245C 199.262,251.73 193.262,258.564 187.5,265.5C 186.833,265.167 186.167,264.833 185.5,264.5C 191.226,256.24 197.559,248.406 204.5,241C 209.217,240.692 212.884,242.525 215.5,246.5 Z"/></g>
<g><path style="opacity:1" fill="#69b4ed" d="M 185.5,264.5 C 186.167,264.833 186.833,265.167 187.5,265.5C 182.244,273.43 176.577,281.096 170.5,288.5C 169.957,288.44 169.624,288.107 169.5,287.5C 170.167,286.5 170.833,285.5 171.5,284.5C 169.819,279.633 167.653,274.966 165,270.5C 165.745,274.163 165.411,277.83 164,281.5C 160.264,290.208 156.43,298.875 152.5,307.5C 152.863,308.183 153.196,308.85 153.5,309.5C 152.602,311.905 151.102,313.905 149,315.5C 148.833,315 148.667,314.5 148.5,314C 152.529,304.109 156.695,294.276 161,284.5C 165.778,275.214 163.778,267.88 155,262.5C 140.944,276.278 127.111,290.278 113.5,304.5C 114.373,302.114 115.873,300.114 118,298.5C 118.492,297.451 118.326,296.451 117.5,295.5C 117.855,294.478 118.522,293.811 119.5,293.5C 130.3,282.532 140.967,271.365 151.5,260C 155.793,258.798 159.293,259.965 162,263.5C 166.884,268.935 169.884,275.268 171,282.5C 175.697,276.312 180.531,270.312 185.5,264.5 Z"/></g>
<g><path style="opacity:1" fill="#020204" d="M 248.5,266.5 C 254.701,269.187 257.868,273.853 258,280.5C 257.004,282.66 255.504,284.327 253.5,285.5C 246.009,291.317 240.009,298.317 235.5,306.5C 232.831,309.669 229.997,312.669 227,315.5C 223.656,313.655 220.656,311.322 218,308.5C 216.699,306.635 216.365,304.635 217,302.5C 225.32,290.034 234.487,278.201 244.5,267C 245.793,266.51 247.127,266.343 248.5,266.5 Z"/></g>
<g><path style="opacity:1" fill="#020102" d="M 496.5,299.5 C 488.854,312.117 481.687,325.117 475,338.5C 472.701,342.896 471.534,347.562 471.5,352.5C 472.873,352.657 474.207,352.49 475.5,352C 497.389,339.386 520.723,330.72 545.5,326C 556.457,324.643 563.79,329.143 567.5,339.5C 536.432,340.599 507.765,349.433 481.5,366C 471.863,374.636 462.53,383.636 453.5,393C 450.395,395.964 447.228,396.13 444,393.5C 442.861,387.564 442.195,381.564 442,375.5C 441.612,374.572 440.945,373.905 440,373.5C 433.512,379.988 427.012,386.488 420.5,393C 409.771,398.218 403.271,395.052 401,383.5C 400.868,376.781 400.702,370.115 400.5,363.5C 397.124,366.714 394.29,370.381 392,374.5C 387.742,383.351 383.242,392.017 378.5,400.5C 377.294,403.139 375.294,403.972 372.5,403C 367.667,400.833 364.167,397.333 362,392.5C 362.681,383.249 364.181,374.082 366.5,365C 366.167,363.833 365.833,362.667 365.5,361.5C 363.851,362.648 362.351,363.981 361,365.5C 355.031,375.945 348.531,385.945 341.5,395.5C 336.578,395.101 332.745,392.767 330,388.5C 329.042,386.801 328.542,384.967 328.5,383C 333.593,367.218 338.593,351.385 343.5,335.5C 343.167,334.833 342.833,334.167 342.5,333.5C 335.419,342.004 329.086,351.004 323.5,360.5C 315.925,373.26 306.592,384.76 295.5,395C 292.968,396.765 290.301,398.265 287.5,399.5C 281.483,401.649 276.483,400.315 272.5,395.5C 270.735,392.971 268.735,390.638 266.5,388.5C 262.048,394.787 256.714,400.287 250.5,405C 246.308,407.277 241.975,407.777 237.5,406.5C 230.88,403.048 225.714,398.048 222,391.5C 216.5,397.667 211,403.833 205.5,410C 201.48,413.51 196.814,415.01 191.5,414.5C 183.332,410.468 178.832,403.801 178,394.5C 177.385,385.238 178.718,376.238 182,367.5C 188.484,350.199 196.317,333.532 205.5,317.5C 207.095,316.566 208.761,316.566 210.5,317.5C 214.062,321.456 216.729,325.956 218.5,331C 209.47,348.087 202.803,366.087 198.5,385C 198.833,386.167 199.167,387.333 199.5,388.5C 201.149,387.352 202.649,386.019 204,384.5C 217.874,363.398 232.707,343.065 248.5,323.5C 254.419,317.079 261.086,311.579 268.5,307C 272.7,305.633 277.033,305.133 281.5,305.5C 288.453,308.681 293.12,314.015 295.5,321.5C 290.833,320.667 286.166,320.667 281.5,321.5C 273.871,323.447 267.871,327.78 263.5,334.5C 253.588,346.636 245.421,359.97 239,374.5C 233.832,392.096 236.499,394.096 247,380.5C 254.391,369.283 261.557,357.949 268.5,346.5C 272.318,340.422 276.984,334.922 282.5,330C 283.793,329.51 285.127,329.343 286.5,329.5C 291.174,332.174 294.841,335.841 297.5,340.5C 293.336,349.495 289.169,358.495 285,367.5C 283.691,372.066 283.191,376.733 283.5,381.5C 286.263,381.256 288.429,379.923 290,377.5C 296.177,367.805 302.344,358.138 308.5,348.5C 317.41,335.022 326.577,321.688 336,308.5C 340.54,303.027 345.706,298.36 351.5,294.5C 355.594,293.705 358.761,295.038 361,298.5C 362.864,303.343 364.197,308.343 365,313.5C 365.388,314.428 366.055,315.095 367,315.5C 371.767,309.061 376.933,302.894 382.5,297C 388.351,295.843 392.518,298.009 395,303.5C 394.709,310.189 394.876,316.855 395.5,323.5C 404.42,311.238 413.754,299.238 423.5,287.5C 425.187,286.432 426.854,286.599 428.5,288C 432.88,291.707 435.546,296.374 436.5,302C 431.101,321.099 426.101,340.265 421.5,359.5C 422.873,359.657 424.207,359.49 425.5,359C 442.68,338.14 458.513,316.307 473,293.5C 477.122,287.709 481.622,282.209 486.5,277C 488.635,276.365 490.635,276.699 492.5,278C 496.454,281.117 499.454,284.95 501.5,289.5C 499.295,292.577 497.628,295.91 496.5,299.5 Z"/></g>
<g><path style="opacity:1" fill="#68aff7" d="M 170.5,288.5 C 165.182,295.814 159.516,302.814 153.5,309.5C 153.196,308.85 152.863,308.183 152.5,307.5C 156.43,298.875 160.264,290.208 164,281.5C 165.411,277.83 165.745,274.163 165,270.5C 167.653,274.966 169.819,279.633 171.5,284.5C 170.833,285.5 170.167,286.5 169.5,287.5C 169.624,288.107 169.957,288.44 170.5,288.5 Z"/></g>
<g><path style="opacity:1" fill="#5eb6fa" d="M 131.5,267.5 C 132.622,269.288 132.789,271.288 132,273.5C 127.561,280.055 123.395,286.721 119.5,293.5C 118.522,293.811 117.855,294.478 117.5,295.5C 118.326,296.451 118.492,297.451 118,298.5C 115.873,300.114 114.373,302.114 113.5,304.5C 109.199,310.135 104.533,315.468 99.5,320.5C 97.2843,321.203 95.451,322.536 94,324.5C 103.327,305.53 113.994,287.197 126,269.5C 127.657,266.911 127.991,264.244 127,261.5C 128.431,264.266 129.931,266.266 131.5,267.5 Z"/></g>
<g><path style="opacity:1" fill="#7ba5f1" d="M 215.5,246.5 C 219.972,251.272 223.306,256.772 225.5,263C 216.149,281.897 207.483,301.064 199.5,320.5C 197.941,322.608 196.608,324.941 195.5,327.5C 196.167,328.167 196.833,328.833 197.5,329.5C 194.333,335.833 191.167,342.167 188,348.5C 186.267,338.282 187.767,328.615 192.5,319.5C 192.376,318.893 192.043,318.56 191.5,318.5C 199.649,298.565 208.482,278.898 218,259.5C 218.667,258.167 218.667,256.833 218,255.5C 216.489,253.138 214.989,250.805 213.5,248.5C 213.833,247.5 214.5,246.833 215.5,246.5 Z"/></g>
<g><path style="opacity:1" fill="#9d8be8" d="M 250.5,264.5 C 252.861,265.435 255.028,266.768 257,268.5C 260.692,272.852 263.526,277.685 265.5,283C 262.82,288.854 258.82,293.687 253.5,297.5C 252.356,293.648 252.356,289.648 253.5,285.5C 255.504,284.327 257.004,282.66 258,280.5C 257.868,273.853 254.701,269.187 248.5,266.5C 249.833,266.5 250.5,265.833 250.5,264.5 Z"/></g>
<g><path style="opacity:1" fill="#f169d2" d="M 481.5,344.5 C 480.957,344.44 480.624,344.107 480.5,343.5C 488.412,328.008 496.579,312.675 505,297.5C 505.996,293.793 505.33,290.459 503,287.5C 501.951,291.265 500.618,294.932 499,298.5C 498.329,299.252 497.496,299.586 496.5,299.5C 497.628,295.91 499.295,292.577 501.5,289.5C 499.454,284.95 496.454,281.117 492.5,278C 490.635,276.699 488.635,276.365 486.5,277C 481.622,282.209 477.122,287.709 473,293.5C 458.513,316.307 442.68,338.14 425.5,359C 424.207,359.49 422.873,359.657 421.5,359.5C 426.101,340.265 431.101,321.099 436.5,302C 435.546,296.374 432.88,291.707 428.5,288C 426.854,286.599 425.187,286.432 423.5,287.5C 413.754,299.238 404.42,311.238 395.5,323.5C 394.876,316.855 394.709,310.189 395,303.5C 392.518,298.009 388.351,295.843 382.5,297C 376.933,302.894 371.767,309.061 367,315.5C 366.055,315.095 365.388,314.428 365,313.5C 364.197,308.343 362.864,303.343 361,298.5C 358.761,295.038 355.594,293.705 351.5,294.5C 353.42,293.935 355.087,292.935 356.5,291.5C 359.195,291.933 361.362,293.266 363,295.5C 365.375,299.042 367.542,302.709 369.5,306.5C 373.29,302.208 377.29,298.042 381.5,294C 384.998,292.033 388.332,292.367 391.5,295C 396.083,298.912 399.917,303.412 403,308.5C 409.12,300.045 415.62,291.879 422.5,284C 424.971,283.294 427.305,283.627 429.5,285C 436.328,290.84 440.995,298.007 443.5,306.5C 440.395,318.958 437.229,331.291 434,343.5C 448.667,322.833 463.333,302.167 478,281.5C 480.5,279 483,276.5 485.5,274C 487.833,273.333 490.167,273.333 492.5,274C 499.64,279.301 504.64,286.134 507.5,294.5C 499.371,311.424 490.704,328.091 481.5,344.5 Z"/></g>
<g><path style="opacity:1" fill="#899eee" d="M 250.5,264.5 C 250.5,265.833 249.833,266.5 248.5,266.5C 247.127,266.343 245.793,266.51 244.5,267C 234.487,278.201 225.32,290.034 217,302.5C 216.365,304.635 216.699,306.635 218,308.5C 220.656,311.322 223.656,313.655 227,315.5C 229.997,312.669 232.831,309.669 235.5,306.5C 235.939,309.135 236.439,312.135 237,315.5C 237.383,316.056 237.883,316.389 238.5,316.5C 236.706,318.797 234.706,320.963 232.5,323C 227.146,322.371 222.646,319.871 219,315.5C 217.333,313.167 215.667,310.833 214,308.5C 213.333,306.167 213.333,303.833 214,301.5C 222.339,287.827 232.172,275.327 243.5,264C 246.039,263.204 248.372,263.371 250.5,264.5 Z"/></g>
<g><path style="opacity:1" fill="#9093e9" d="M 253.5,285.5 C 252.356,289.648 252.356,293.648 253.5,297.5C 248.119,303.546 243.119,309.879 238.5,316.5C 237.883,316.389 237.383,316.056 237,315.5C 236.439,312.135 235.939,309.135 235.5,306.5C 240.009,298.317 246.009,291.317 253.5,285.5 Z"/></g>
<g><path style="opacity:1" fill="#a88cee" d="M 283.5,303.5 C 283.167,304.5 282.5,305.167 281.5,305.5C 277.033,305.133 272.7,305.633 268.5,307C 261.086,311.579 254.419,317.079 248.5,323.5C 247.833,323.167 247.167,322.833 246.5,322.5C 252.037,315.797 258.37,309.963 265.5,305C 271.322,302.365 277.322,301.865 283.5,303.5 Z"/></g>
<g><path style="opacity:1" fill="#da6cd5" d="M 356.5,291.5 C 355.087,292.935 353.42,293.935 351.5,294.5C 345.706,298.36 340.54,303.027 336,308.5C 326.577,321.688 317.41,335.022 308.5,348.5C 307.5,348.167 306.833,347.5 306.5,346.5C 315.722,331.773 325.555,317.439 336,303.5C 340.244,298.585 345.077,294.419 350.5,291C 352.712,290.211 354.712,290.378 356.5,291.5 Z"/></g>
<g><path style="opacity:1" fill="#a37edd" d="M 281.5,321.5 C 282.369,323.717 282.702,326.05 282.5,328.5C 284.099,328.232 285.432,328.566 286.5,329.5C 285.127,329.343 283.793,329.51 282.5,330C 276.984,334.922 272.318,340.422 268.5,346.5C 267.671,345.668 266.838,346.001 266,347.5C 265.762,343.778 265.262,340.111 264.5,336.5C 265.981,335.056 265.648,334.389 263.5,334.5C 267.871,327.78 273.871,323.447 281.5,321.5 Z"/></g>
<g><path style="opacity:1" fill="#81a1ef" d="M 210.5,314.5 C 217.347,320.354 222.347,327.521 225.5,336C 220.534,345.584 216.368,355.418 213,365.5C 223.266,350.408 234.433,336.075 246.5,322.5C 247.167,322.833 247.833,323.167 248.5,323.5C 232.707,343.065 217.874,363.398 204,384.5C 202.649,386.019 201.149,387.352 199.5,388.5C 199.167,387.333 198.833,386.167 198.5,385C 202.803,366.087 209.47,348.087 218.5,331C 216.729,325.956 214.062,321.456 210.5,317.5C 210.5,316.5 210.5,315.5 210.5,314.5 Z"/></g>
<g><path style="opacity:1" fill="#5cbdef" d="M 131.5,267.5 C 129.931,266.266 128.431,264.266 127,261.5C 127.991,264.244 127.657,266.911 126,269.5C 113.994,287.197 103.327,305.53 94,324.5C 95.451,322.536 97.2843,321.203 99.5,320.5C 96.3355,323.833 93.3355,327.333 90.5,331C 89.6683,331.688 89.0016,331.521 88.5,330.5C 99.9052,308.012 112.572,286.346 126.5,265.5C 124.927,259.936 121.594,255.936 116.5,253.5C 113.893,254.137 111.56,255.304 109.5,257C 97.8333,266 86.1667,275 74.5,284C 55.3714,298.648 34.2047,309.482 11,316.5C 10.7568,326.582 15.5902,330.415 25.5,328C 45.3596,322.44 64.0263,314.274 81.5,303.5C 81.8333,304.333 82.1667,305.167 82.5,306C 63.8891,340.819 47.3891,376.653 33,413.5C 30.918,421.008 33.0847,427.008 39.5,431.5C 36.894,432.85 36.894,434.35 39.5,436C 41.9554,437.631 44.4554,437.797 47,436.5C 56.2085,419.968 66.2085,403.968 77,388.5C 77.69,387.262 78.19,387.262 78.5,388.5C 67.2672,404.915 56.6006,421.748 46.5,439C 44.0288,439.706 41.6954,439.373 39.5,438C 32.8763,432.255 29.3763,425.088 29,416.5C 40.6945,383.441 54.8611,351.441 71.5,320.5C 66.225,322.118 60.8917,324.451 55.5,327.5C 55.4142,326.504 55.7476,325.671 56.5,325C 60.9531,323.274 65.2864,321.274 69.5,319C 70.8989,318.405 72.2322,318.572 73.5,319.5C 77.0535,315.062 79.3868,310.396 80.5,305.5C 63.3974,316.384 45.0641,324.55 25.5,330C 21.556,330.99 17.8894,330.49 14.5,328.5C 14.1667,328.667 13.8333,328.833 13.5,329C 15.7828,333.061 19.2828,335.228 24,335.5C 31.6888,334.215 39.1888,332.215 46.5,329.5C 47.1067,329.624 47.44,329.957 47.5,330.5C 38.3705,335.154 28.7038,336.987 18.5,336C 12.5528,331.447 8.88617,325.447 7.5,318C 7.64312,315.849 8.64312,314.182 10.5,313C 24.533,308.984 37.8663,303.317 50.5,296C 72.0282,281.736 93.0282,266.736 113.5,251C 115.5,250.333 117.5,250.333 119.5,251C 124.865,255.585 128.865,261.085 131.5,267.5 Z"/></g>
<g><path style="opacity:1" fill="#59b8fe" d="M 55.5,327.5 C 52.8333,328.5 50.1667,329.5 47.5,330.5C 47.44,329.957 47.1067,329.624 46.5,329.5C 39.1888,332.215 31.6888,334.215 24,335.5C 19.2828,335.228 15.7828,333.061 13.5,329C 13.8333,328.833 14.1667,328.667 14.5,328.5C 17.8894,330.49 21.556,330.99 25.5,330C 45.0641,324.55 63.3974,316.384 80.5,305.5C 79.3868,310.396 77.0535,315.062 73.5,319.5C 72.2322,318.572 70.8989,318.405 69.5,319C 65.2864,321.274 60.9531,323.274 56.5,325C 55.7476,325.671 55.4142,326.504 55.5,327.5 Z"/></g>
<g><path style="opacity:1" fill="#f867d0" d="M 481.5,344.5 C 487.057,342.744 492.724,340.244 498.5,337C 515.78,329.347 533.78,324.18 552.5,321.5C 562.015,325.511 569.182,332.177 574,341.5C 574.825,343.701 574.325,345.534 572.5,347C 539.598,348.634 509.598,358.634 482.5,377C 473.768,386.401 464.435,395.068 454.5,403C 448.56,404.419 444.393,402.252 442,396.5C 440.734,393.534 439.567,390.534 438.5,387.5C 434.174,394.663 428.174,399.83 420.5,403C 412.959,405.137 407.126,402.97 403,396.5C 400.07,392.638 398.236,388.305 397.5,383.5C 396.818,384.243 396.151,384.909 395.5,385.5C 391.302,392.792 386.635,400.458 381.5,408.5C 375.656,410.249 370.989,408.582 367.5,403.5C 368.576,402.344 369.576,402.511 370.5,404C 372.833,404.667 375.167,404.667 377.5,404C 379.311,402.959 379.645,401.793 378.5,400.5C 383.242,392.017 387.742,383.351 392,374.5C 394.29,370.381 397.124,366.714 400.5,363.5C 400.702,370.115 400.868,376.781 401,383.5C 403.271,395.052 409.771,398.218 420.5,393C 427.012,386.488 433.512,379.988 440,373.5C 440.945,373.905 441.612,374.572 442,375.5C 442.195,381.564 442.861,387.564 444,393.5C 447.228,396.13 450.395,395.964 453.5,393C 462.53,383.636 471.863,374.636 481.5,366C 507.765,349.433 536.432,340.599 567.5,339.5C 563.79,329.143 556.457,324.643 545.5,326C 520.723,330.72 497.389,339.386 475.5,352C 474.207,352.49 472.873,352.657 471.5,352.5C 471.534,347.562 472.701,342.896 475,338.5C 481.687,325.117 488.854,312.117 496.5,299.5C 497.496,299.586 498.329,299.252 499,298.5C 500.618,294.932 501.951,291.265 503,287.5C 505.33,290.459 505.996,293.793 505,297.5C 496.579,312.675 488.412,328.008 480.5,343.5C 480.624,344.107 480.957,344.44 481.5,344.5 Z"/></g>
<g><path style="opacity:1" fill="#5bb8fc" d="M 119.5,335.5 C 118.204,340.393 116.538,345.06 114.5,349.5C 114.565,349.062 114.399,348.728 114,348.5C 113.667,349.167 113.333,349.833 113,350.5C 112.023,349.226 111.189,349.226 110.5,350.5C 99.3579,362.796 88.6913,375.463 78.5,388.5C 78.19,387.262 77.69,387.262 77,388.5C 66.2085,403.968 56.2085,419.968 47,436.5C 44.4554,437.797 41.9554,437.631 39.5,436C 36.894,434.35 36.894,432.85 39.5,431.5C 40.5,431.5 41.5,431.5 42.5,431.5C 56.8495,406.64 73.0162,382.973 91,360.5C 99.6361,350.863 108.636,341.53 118,332.5C 118.232,333.737 118.732,334.737 119.5,335.5 Z"/></g>
<g><path style="opacity:1" fill="#dd6cd5" d="M 341.5,395.5 C 338.742,396.967 339.075,397.633 342.5,397.5C 343.38,399.611 343.38,401.611 342.5,403.5C 325.37,395.902 321.37,383.902 330.5,367.5C 330.03,366.537 329.363,366.537 328.5,367.5C 327.784,367.217 326.951,366.884 326,366.5C 325.349,364.765 325.515,363.098 326.5,361.5C 325.369,360.396 324.535,360.729 324,362.5C 323.536,361.906 323.369,361.239 323.5,360.5C 329.086,351.004 335.419,342.004 342.5,333.5C 342.833,334.167 343.167,334.833 343.5,335.5C 338.593,351.385 333.593,367.218 328.5,383C 328.542,384.967 329.042,386.801 330,388.5C 332.745,392.767 336.578,395.101 341.5,395.5 Z"/></g>
<g><path style="opacity:1" fill="#b96fd7" d="M 283.5,303.5 C 291.562,307.731 297.396,314.064 301,322.5C 303.881,330.117 301.714,332.45 294.5,329.5C 294.167,329.833 293.833,330.167 293.5,330.5C 298.955,335.092 302.621,340.758 304.5,347.5C 302.763,349.64 301.596,351.973 301,354.5C 303.009,352.478 304.509,350.145 305.5,347.5C 305.5,346.833 305.833,346.5 306.5,346.5C 306.833,347.5 307.5,348.167 308.5,348.5C 302.344,358.138 296.177,367.805 290,377.5C 288.429,379.923 286.263,381.256 283.5,381.5C 283.191,376.733 283.691,372.066 285,367.5C 289.169,358.495 293.336,349.495 297.5,340.5C 294.841,335.841 291.174,332.174 286.5,329.5C 285.432,328.566 284.099,328.232 282.5,328.5C 282.702,326.05 282.369,323.717 281.5,321.5C 286.166,320.667 290.833,320.667 295.5,321.5C 293.12,314.015 288.453,308.681 281.5,305.5C 282.5,305.167 283.167,304.5 283.5,303.5 Z"/></g>
<g><path style="opacity:1" fill="#522e5a" d="M 304.5,347.5 C 304.833,347.5 305.167,347.5 305.5,347.5C 304.509,350.145 303.009,352.478 301,354.5C 301.596,351.973 302.763,349.64 304.5,347.5 Z"/></g>
<g><path style="opacity:1" fill="#958ee7" d="M 263.5,334.5 C 265.648,334.389 265.981,335.056 264.5,336.5C 265.262,340.111 265.762,343.778 266,347.5C 266.838,346.001 267.671,345.668 268.5,346.5C 261.557,357.949 254.391,369.283 247,380.5C 236.499,394.096 233.832,392.096 239,374.5C 245.421,359.97 253.588,346.636 263.5,334.5 Z"/></g>
<g><path style="opacity:1" fill="#5ebdf1" d="M 119.5,335.5 C 118.732,334.737 118.232,333.737 118,332.5C 108.636,341.53 99.6361,350.863 91,360.5C 73.0162,382.973 56.8495,406.64 42.5,431.5C 62.3379,392.641 88.3379,358.307 120.5,328.5C 121.279,330.885 120.946,333.218 119.5,335.5 Z"/></g>
<g><path style="opacity:1" fill="#61b4fc" d="M 165.5,336.5 C 164.124,342.027 162.457,347.36 160.5,352.5C 158.892,354.618 157.226,357.285 155.5,360.5C 155.565,360.062 155.399,359.728 155,359.5C 154.148,360.571 153.315,361.571 152.5,362.5C 137.793,382.801 124.626,404.801 113,428.5C 111.534,430.325 109.701,430.825 107.5,430C 103.788,427.972 101.288,425.139 100,421.5C 102.597,424.268 105.597,425.268 109,424.5C 125.071,392.671 143.405,362.338 164,333.5C 164.232,334.737 164.732,335.737 165.5,336.5 Z"/></g>
<g><path style="opacity:1" fill="#ea6ad3" d="M 378.5,400.5 C 379.645,401.793 379.311,402.959 377.5,404C 375.167,404.667 372.833,404.667 370.5,404C 369.576,402.511 368.576,402.344 367.5,403.5C 370.989,408.582 375.656,410.249 381.5,408.5C 386.635,400.458 391.302,392.792 395.5,385.5C 392.951,391.599 390.118,397.599 387,403.5C 385.168,406.361 383.001,408.861 380.5,411C 374.227,411.116 369.06,408.616 365,403.5C 361.028,398.889 358.695,393.555 358,387.5C 354.938,393.23 351.104,398.397 346.5,403C 345.207,403.49 343.873,403.657 342.5,403.5C 343.38,401.611 343.38,399.611 342.5,397.5C 339.075,397.633 338.742,396.967 341.5,395.5C 348.531,385.945 355.031,375.945 361,365.5C 362.351,363.981 363.851,362.648 365.5,361.5C 365.833,362.667 366.167,363.833 366.5,365C 364.181,374.082 362.681,383.249 362,392.5C 364.167,397.333 367.667,400.833 372.5,403C 375.294,403.972 377.294,403.139 378.5,400.5 Z"/></g>
<g><path style="opacity:1" fill="#c86ed6" d="M 323.5,360.5 C 323.369,361.239 323.536,361.906 324,362.5C 324.535,360.729 325.369,360.396 326.5,361.5C 325.515,363.098 325.349,364.765 326,366.5C 326.951,366.884 327.784,367.217 328.5,367.5C 321.328,380.299 312.328,391.799 301.5,402C 296.21,406.145 290.21,408.312 283.5,408.5C 285.062,407.024 286.729,405.524 288.5,404C 288.088,402.436 287.755,400.936 287.5,399.5C 290.301,398.265 292.968,396.765 295.5,395C 306.592,384.76 315.925,373.26 323.5,360.5 Z"/></g>
<g><path style="opacity:1" fill="#66baef" d="M 160.5,352.5 C 149.441,387.512 138.274,422.512 127,457.5C 126.333,459.5 126.333,461.5 127,463.5C 130.299,466.551 133.799,469.218 137.5,471.5C 134.05,471.187 130.884,469.521 128,466.5C 129.288,470.139 131.788,472.972 135.5,475C 139.062,477.807 142.562,477.973 146,475.5C 146.399,475.728 146.565,476.062 146.5,476.5C 146.441,478.722 145.275,479.722 143,479.5C 132.893,477.058 126.393,470.891 123.5,461C 132.878,427.081 143.544,393.581 155.5,360.5C 157.226,357.285 158.892,354.618 160.5,352.5 Z"/></g>
<g><path style="opacity:1" fill="#9988e3" d="M 272.5,395.5 C 271.566,396.568 271.232,397.901 271.5,399.5C 270.883,399.389 270.383,399.056 270,398.5C 265.406,405.096 259.573,410.262 252.5,414C 247.95,416.124 243.616,415.958 239.5,413.5C 239.938,413.565 240.272,413.399 240.5,413C 236.882,411.936 235.882,409.769 237.5,406.5C 241.975,407.777 246.308,407.277 250.5,405C 256.714,400.287 262.048,394.787 266.5,388.5C 268.735,390.638 270.735,392.971 272.5,395.5 Z"/></g>
<g><path style="opacity:1" fill="#6ab0f5" d="M 210.5,314.5 C 210.5,315.5 210.5,316.5 210.5,317.5C 208.761,316.566 207.095,316.566 205.5,317.5C 196.317,333.532 188.484,350.199 182,367.5C 178.718,376.238 177.385,385.238 178,394.5C 178.832,403.801 183.332,410.468 191.5,414.5C 191.44,415.043 191.107,415.376 190.5,415.5C 188.503,414.253 186.503,413.419 184.5,413C 187.024,416.606 190.357,419.272 194.5,421C 194.272,421.399 193.938,421.565 193.5,421.5C 184.696,417.178 178.863,410.178 176,400.5C 175.007,396.558 174.34,392.558 174,388.5C 164.494,417.844 155.327,447.178 146.5,476.5C 146.565,476.062 146.399,475.728 146,475.5C 142.562,477.973 139.062,477.807 135.5,475C 131.788,472.972 129.288,470.139 128,466.5C 130.884,469.521 134.05,471.187 137.5,471.5C 138.5,471.5 139.5,471.5 140.5,471.5C 154.139,419.249 171.139,368.249 191.5,318.5C 192.043,318.56 192.376,318.893 192.5,319.5C 187.767,328.615 186.267,338.282 188,348.5C 191.167,342.167 194.333,335.833 197.5,329.5C 196.833,328.833 196.167,328.167 195.5,327.5C 196.608,324.941 197.941,322.608 199.5,320.5C 201.39,318.41 203.057,316.077 204.5,313.5C 206.799,312.243 208.799,312.577 210.5,314.5 Z"/></g>
<g><path style="opacity:1" fill="#ad78dc" d="M 272.5,395.5 C 276.483,400.315 281.483,401.649 287.5,399.5C 287.755,400.936 288.088,402.436 288.5,404C 286.729,405.524 285.062,407.024 283.5,408.5C 278.369,407.039 274.369,404.039 271.5,399.5C 271.232,397.901 271.566,396.568 272.5,395.5 Z"/></g>
<g><path style="opacity:1" fill="#7da3f1" d="M 237.5,406.5 C 235.882,409.769 236.882,411.936 240.5,413C 240.272,413.399 239.938,413.565 239.5,413.5C 233.376,411.223 228.543,407.223 225,401.5C 219.719,409.237 213.219,415.737 205.5,421C 201.408,422.632 197.408,422.798 193.5,421.5C 193.938,421.565 194.272,421.399 194.5,421C 190.357,419.272 187.024,416.606 184.5,413C 186.503,413.419 188.503,414.253 190.5,415.5C 191.107,415.376 191.44,415.043 191.5,414.5C 196.814,415.01 201.48,413.51 205.5,410C 211,403.833 216.5,397.667 222,391.5C 225.714,398.048 230.88,403.048 237.5,406.5 Z"/></g>
<g><path style="opacity:1" fill="#61bbef" d="M 165.5,336.5 C 164.732,335.737 164.232,334.737 164,333.5C 143.405,362.338 125.071,392.671 109,424.5C 105.597,425.268 102.597,424.268 100,421.5C 101.288,425.139 103.788,427.972 107.5,430C 109.701,430.825 111.534,430.325 113,428.5C 124.626,404.801 137.793,382.801 152.5,362.5C 138.547,384.896 125.214,407.729 112.5,431C 110.5,431.667 108.5,431.667 106.5,431C 99.9472,426.545 95.6139,420.545 93.5,413C 97.7177,391.959 103.718,371.459 111.5,351.5C 111.376,350.893 111.043,350.56 110.5,350.5C 111.189,349.226 112.023,349.226 113,350.5C 113.333,349.833 113.667,349.167 114,348.5C 114.399,348.728 114.565,349.062 114.5,349.5C 107.494,370.523 101.494,391.857 96.5,413.5C 97.8343,417.344 100.168,420.511 103.5,423C 104.833,423.667 106.167,423.667 107.5,423C 124.372,390.067 143.872,358.9 166,329.5C 166.556,331.885 166.39,334.218 165.5,336.5 Z"/></g>
</svg>
